<?xml version="1.0" encoding="utf-8"?>
<svg style="fill-opacity:1; color-rendering:auto; color-interpolation:auto; stroke:black; text-rendering:auto; stroke-linecap:square; stroke-miterlimit:10; stroke-opacity:1; shape-rendering:auto; fill:black; stroke-dasharray:none; font-weight:normal; stroke-width:1; font-family:'Dialog'; font-style:normal; stroke-linejoin:miter; font-size:12px; stroke-dashoffset:0; image-rendering:auto;" width="576" height="432" viewBox="8.107 0.447 578.977 432.601" xmlns="http://www.w3.org/2000/svg">
  <g>
    <defs id="defs1">
      <clipPath clipPathUnits="userSpaceOnUse" id="clipPath1">
        <path d="M0 0 L576 0 L576 432 L0 432 L0 0 Z"/>
      </clipPath>
    </defs>
    <g style="fill:white; stroke:white;" transform="matrix(1, 0, 0, 1, 8.457831, 0)">
      <rect x="0" y="0" width="576" style="clip-path:url(#clipPath1); stroke:none;" height="432"/>
    </g>
    <g style="text-rendering:geometricPrecision; stroke-width:0.5; color-interpolation:linearRGB; color-rendering:optimizeQuality; stroke-linejoin:round; image-rendering:optimizeQuality;">
      <line y2="384" style="fill:none;" x1="75" x2="521" y1="384"/>
      <line y2="379.54" style="fill:none;" x1="75" x2="75" y1="384"/>
      <line y2="379.54" style="fill:none;" x1="164.2" x2="164.2" y1="384"/>
      <line y2="379.54" style="fill:none;" x1="253.4" x2="253.4" y1="384"/>
      <line y2="379.54" style="fill:none;" x1="342.6" x2="342.6" y1="384"/>
      <line y2="379.54" style="fill:none;" x1="431.8" x2="431.8" y1="384"/>
      <line y2="379.54" style="fill:none;" x1="521" x2="521" y1="384"/>
    </g>
    <g transform="translate(75,388.8)" style="font-size:14px; text-rendering:geometricPrecision; color-rendering:optimizeQuality; image-rendering:optimizeQuality; font-family:'Helvetica'; color-interpolation:linearRGB;">
      <text x="-10" y="11" style="stroke: none; white-space: pre;">0.5</text>
    </g>
    <g transform="translate(164.2,388.8)" style="font-size:14px; text-rendering:geometricPrecision; color-rendering:optimizeQuality; image-rendering:optimizeQuality; font-family:'Helvetica'; color-interpolation:linearRGB;">
      <text x="-4" y="11" style="stroke: none; white-space: pre;">1</text>
    </g>
    <g transform="translate(253.4,388.8)" style="font-size:14px; text-rendering:geometricPrecision; color-rendering:optimizeQuality; image-rendering:optimizeQuality; font-family:'Helvetica'; color-interpolation:linearRGB;">
      <text x="-10" y="11" style="stroke: none; white-space: pre;">1.5</text>
    </g>
    <g transform="translate(342.6,388.8)" style="font-size:14px; text-rendering:geometricPrecision; color-rendering:optimizeQuality; image-rendering:optimizeQuality; font-family:'Helvetica'; color-interpolation:linearRGB;">
      <text x="-4" y="11" style="stroke: none; white-space: pre;">2</text>
    </g>
    <g transform="translate(431.8,388.8)" style="font-size:14px; text-rendering:geometricPrecision; color-rendering:optimizeQuality; image-rendering:optimizeQuality; font-family:'Helvetica'; color-interpolation:linearRGB;">
      <text x="-10" y="11" style="stroke: none; white-space: pre;">2.5</text>
    </g>
    <g transform="translate(521,388.8)" style="font-size:14px; text-rendering:geometricPrecision; color-rendering:optimizeQuality; image-rendering:optimizeQuality; font-family:'Helvetica'; color-interpolation:linearRGB;">
      <text x="-4" y="11" style="stroke: none; white-space: pre;">3</text>
    </g>
    <g transform="translate(298.0002,404.8)" style="font-size:15px; text-rendering:geometricPrecision; color-rendering:optimizeQuality; image-rendering:optimizeQuality; font-family:'Helvetica'; color-interpolation:linearRGB;">
      <text x="-78" y="12" style="stroke: none; white-space: pre;">Swimming Speed (m/s)</text>
    </g>
    <g style="text-rendering:geometricPrecision; stroke-width:0.5; color-interpolation:linearRGB; color-rendering:optimizeQuality; stroke-linejoin:round; image-rendering:optimizeQuality;">
      <line y2="32" style="fill:none;" x1="75" x2="75" y1="384"/>
      <line y2="384" style="fill:none;" x1="75" x2="79.46" y1="384"/>
      <line y2="350.4762" style="fill:none;" x1="75" x2="79.46" y1="350.4762"/>
      <line y2="316.9524" style="fill:none;" x1="75" x2="79.46" y1="316.9524"/>
      <line y2="283.4286" style="fill:none;" x1="75" x2="79.46" y1="283.4286"/>
      <line y2="249.9048" style="fill:none;" x1="75" x2="79.46" y1="249.9048"/>
      <line y2="216.381" style="fill:none;" x1="75" x2="79.46" y1="216.381"/>
      <line y2="182.8571" style="fill:none;" x1="75" x2="79.46" y1="182.8571"/>
      <line y2="149.3333" style="fill:none;" x1="75" x2="79.46" y1="149.3333"/>
      <line y2="115.8095" style="fill:none;" x1="75" x2="79.46" y1="115.8095"/>
      <line y2="82.2857" style="fill:none;" x1="75" x2="79.46" y1="82.2857"/>
      <line y2="48.7619" style="fill:none;" x1="75" x2="79.46" y1="48.7619"/>
    </g>
    <g transform="translate(70.2,384)" style="font-size:14px; text-rendering:geometricPrecision; color-rendering:optimizeQuality; image-rendering:optimizeQuality; font-family:'Helvetica'; color-interpolation:linearRGB;">
      <text x="-8" y="3.5" style="stroke: none; white-space: pre;">0</text>
    </g>
    <g transform="translate(70.2,350.4762)" style="font-size:14px; text-rendering:geometricPrecision; color-rendering:optimizeQuality; image-rendering:optimizeQuality; font-family:'Helvetica'; color-interpolation:linearRGB;">
      <text x="-20" y="3.5" style="stroke: none; white-space: pre;">0.1</text>
    </g>
    <g transform="translate(70.2,316.9524)" style="font-size:14px; text-rendering:geometricPrecision; color-rendering:optimizeQuality; image-rendering:optimizeQuality; font-family:'Helvetica'; color-interpolation:linearRGB;">
      <text x="-20" y="3.5" style="stroke: none; white-space: pre;">0.2</text>
    </g>
    <g transform="translate(70.2,283.4286)" style="font-size:14px; text-rendering:geometricPrecision; color-rendering:optimizeQuality; image-rendering:optimizeQuality; font-family:'Helvetica'; color-interpolation:linearRGB;">
      <text x="-20" y="3.5" style="stroke: none; white-space: pre;">0.3</text>
    </g>
    <g transform="translate(70.2,249.9048)" style="font-size:14px; text-rendering:geometricPrecision; color-rendering:optimizeQuality; image-rendering:optimizeQuality; font-family:'Helvetica'; color-interpolation:linearRGB;">
      <text x="-20" y="3.5" style="stroke: none; white-space: pre;">0.4</text>
    </g>
    <g transform="translate(70.2,216.381)" style="font-size:14px; text-rendering:geometricPrecision; color-rendering:optimizeQuality; image-rendering:optimizeQuality; font-family:'Helvetica'; color-interpolation:linearRGB;">
      <text x="-20" y="3.5" style="stroke: none; white-space: pre;">0.5</text>
    </g>
    <g transform="translate(70.2,182.8571)" style="font-size:14px; text-rendering:geometricPrecision; color-rendering:optimizeQuality; image-rendering:optimizeQuality; font-family:'Helvetica'; color-interpolation:linearRGB;">
      <text x="-20" y="3.5" style="stroke: none; white-space: pre;">0.6</text>
    </g>
    <g transform="translate(70.2,149.3333)" style="font-size:14px; text-rendering:geometricPrecision; color-rendering:optimizeQuality; image-rendering:optimizeQuality; font-family:'Helvetica'; color-interpolation:linearRGB;">
      <text x="-20" y="3.5" style="stroke: none; white-space: pre;">0.7</text>
    </g>
    <g transform="translate(70.2,115.8095)" style="font-size:14px; text-rendering:geometricPrecision; color-rendering:optimizeQuality; image-rendering:optimizeQuality; font-family:'Helvetica'; color-interpolation:linearRGB;">
      <text x="-20" y="3.5" style="stroke: none; white-space: pre;">0.8</text>
    </g>
    <g transform="translate(70.2,82.2857)" style="font-size:14px; text-rendering:geometricPrecision; color-rendering:optimizeQuality; image-rendering:optimizeQuality; font-family:'Helvetica'; color-interpolation:linearRGB;">
      <text x="-20" y="3.5" style="stroke: none; white-space: pre;">0.9</text>
    </g>
    <g transform="translate(70.2,48.7619)" style="font-size:14px; text-rendering:geometricPrecision; color-rendering:optimizeQuality; image-rendering:optimizeQuality; font-family:'Helvetica'; color-interpolation:linearRGB;">
      <text x="-8" y="3.5" style="stroke: none; white-space: pre;">1</text>
    </g>
    <g transform="translate(47.2,207.9998) rotate(-90)" style="font-size:15px; text-rendering:geometricPrecision; color-rendering:optimizeQuality; image-rendering:optimizeQuality; font-family:'Helvetica'; color-interpolation:linearRGB;">
      <text x="-95.5" y="-4" style="stroke: none; white-space: pre;">Relative Mouth Friction Drag</text>
    </g>
    <g style="stroke-linecap:butt; fill:rgb(0,114,189); text-rendering:geometricPrecision; color-rendering:optimizeQuality; image-rendering:optimizeQuality; stroke-linejoin:round; color-interpolation:linearRGB; stroke:rgb(0,114,189); stroke-width:2;">
      <path d="M75 374.6878 L92.84 370.5905 L110.68 365.7481 L128.52 360.1609 L146.36 353.8286 L164.2 346.7513 L182.04 338.9291 L199.88 330.3619 L217.72 321.0497 L235.56 310.9926 L253.4 300.1905 L271.24 288.6434 L289.08 276.3513 L306.92 263.3143 L324.76 249.5323 L342.6 235.0053 L360.44 219.7333 L378.28 203.7164 L396.12 186.9545 L413.96 169.4476 L431.8 151.1958 L449.64 132.1989 L467.48 112.4571 L485.32 91.9704 L503.16 70.7386 L521 48.7619" style="fill:none; fill-rule:evenodd;"/>
      <path d="M75 381.7986 L92.84 380.8299 L110.68 379.6852 L128.52 378.3643 L146.36 376.8673 L164.2 375.1942 L182.04 373.3449 L199.88 371.3196 L217.72 369.1181 L235.56 366.7406 L253.4 364.1869 L271.24 361.4571 L289.08 358.5511 L306.92 355.4691 L324.76 352.2109 L342.6 348.7767 L360.44 345.1663 L378.28 341.3798 L396.12 337.4171 L413.96 333.2784 L431.8 328.9635 L449.64 324.4726 L467.48 319.8055 L485.32 314.9622 L503.16 309.9429 L521 304.7475" style="fill:none; fill-rule:evenodd; stroke:rgb(217,83,25);"/>
      <path d="M75 379.5971 L92.84 377.6598 L110.68 375.3703 L128.52 372.7285 L146.36 369.7346 L164.2 366.3883 L182.04 362.6899 L199.88 358.6392 L217.72 354.2363 L235.56 349.4811 L253.4 344.3737 L271.24 338.9141 L289.08 333.1023 L306.92 326.9382 L324.76 320.4219 L342.6 313.5533 L360.44 306.3326 L378.28 298.7595 L396.12 290.8343 L413.96 282.5568 L431.8 273.9271 L449.64 264.9451 L467.48 255.6109 L485.32 245.9245 L503.16 235.8859 L521 225.495" style="fill:none; fill-rule:evenodd; stroke:rgb(237,177,32);"/>
    </g>
    <g style="text-rendering:geometricPrecision; stroke-width:0.5; color-interpolation:linearRGB; color-rendering:optimizeQuality; stroke-linejoin:round; image-rendering:optimizeQuality;">
      <line y2="32" style="fill:none;" x1="75" x2="521" y1="32"/>
      <line y2="32" style="fill:none;" x1="521" x2="521" y1="384"/>
      <line y2="384" style="fill:none;" x1="521" x2="516.54" y1="384"/>
      <line y2="302.7692" style="fill:none;" x1="521" x2="516.54" y1="302.7692"/>
      <line y2="221.5385" style="fill:none;" x1="521" x2="516.54" y1="221.5385"/>
      <line y2="140.3077" style="fill:none;" x1="521" x2="516.54" y1="140.3077"/>
      <line y2="59.0769" style="fill:none;" x1="521" x2="516.54" y1="59.0769"/>
    </g>
    <g transform="translate(525.8,384)" style="font-size:14px; text-rendering:geometricPrecision; color-rendering:optimizeQuality; image-rendering:optimizeQuality; font-family:'Helvetica'; color-interpolation:linearRGB;">
      <text x="0" y="3.5" style="stroke: none; white-space: pre;">0</text>
    </g>
    <g transform="translate(525.8,302.7692)" style="font-size:14px; text-rendering:geometricPrecision; color-rendering:optimizeQuality; image-rendering:optimizeQuality; font-family:'Helvetica'; color-interpolation:linearRGB;">
      <text x="0" y="3.5" style="stroke: none; white-space: pre;">3</text>
    </g>
    <g transform="translate(525.8,221.5385)" style="font-size:14px; text-rendering:geometricPrecision; color-rendering:optimizeQuality; image-rendering:optimizeQuality; font-family:'Helvetica'; color-interpolation:linearRGB;">
      <text x="0" y="3.5" style="stroke: none; white-space: pre;">6</text>
    </g>
    <g transform="translate(525.8,140.3077)" style="font-size:14px; text-rendering:geometricPrecision; color-rendering:optimizeQuality; image-rendering:optimizeQuality; font-family:'Helvetica'; color-interpolation:linearRGB;">
      <text x="0" y="3.5" style="stroke: none; white-space: pre;">9</text>
    </g>
    <g transform="translate(525.8,59.0769)" style="font-size:14px; text-rendering:geometricPrecision; color-rendering:optimizeQuality; image-rendering:optimizeQuality; font-family:'Helvetica'; color-interpolation:linearRGB;">
      <text x="0" y="3.5" style="stroke: none; white-space: pre;">12</text>
    </g>
    <g transform="translate(562,276) rotate(-90)" style="font-size:15px; text-rendering:geometricPrecision; color-rendering:optimizeQuality; image-rendering:optimizeQuality; font-family:'Helvetica'; color-interpolation:linearRGB;">
      <text x="0" y="0" style="stroke: none; white-space: pre;">Filtation Rate (m</text>
    </g>
    <g transform="translate(555,165) rotate(-90)" style="text-rendering:geometricPrecision; font-family:'Helvetica'; color-interpolation:linearRGB; color-rendering:optimizeQuality; image-rendering:optimizeQuality;">
      <text x="0" y="0" style="stroke: none; white-space: pre;">3</text>
    </g>
    <g transform="translate(562,158) rotate(-90)" style="font-size:15px; text-rendering:geometricPrecision; color-rendering:optimizeQuality; image-rendering:optimizeQuality; font-family:'Helvetica'; color-interpolation:linearRGB;">
      <text x="0" y="0" style="stroke: none; white-space: pre;">/s)</text>
    </g>
    <g style="stroke-linecap:butt; fill:rgb(0,114,189); text-rendering:geometricPrecision; color-rendering:optimizeQuality; image-rendering:optimizeQuality; stroke-linejoin:bevel; stroke-dasharray:8,8; color-interpolation:linearRGB; stroke:rgb(0,114,189); stroke-width:2; stroke-miterlimit:1;">
      <path d="M75 327.1385 L92.84 315.7661 L110.68 304.3939 L128.52 293.0215 L146.36 281.6492 L164.2 270.2769 L182.04 258.9046 L199.88 247.5323 L217.72 236.16 L235.56 224.7877 L253.4 213.4154 L271.24 202.0431 L289.08 190.6708 L306.92 179.2985 L324.76 167.9261 L342.6 156.5539 L360.44 145.1815 L378.28 133.8092 L396.12 122.4369 L413.96 111.0646 L431.8 99.6923 L449.64 88.32 L467.48 76.9477 L485.32 65.5754 L503.16 54.2031 L521 42.8308" style="fill:none; fill-rule:evenodd;"/>
      <path d="M75 370.4615 L92.84 367.7538 L110.68 365.0461 L128.52 362.3385 L146.36 359.6308 L164.2 356.9231 L182.04 354.2154 L199.88 351.5077 L217.72 348.8 L235.56 346.0923 L253.4 343.3846 L271.24 340.6769 L289.08 337.9692 L306.92 335.2615 L324.76 332.5538 L342.6 329.8462 L360.44 327.1385 L378.28 324.4308 L396.12 321.7231 L413.96 319.0154 L431.8 316.3077 L449.64 313.6 L467.48 310.8923 L485.32 308.1846 L503.16 305.4769 L521 302.7692" style="fill:none; fill-rule:evenodd; stroke:rgb(217,83,25);"/>
      <path d="M75 356.9231 L92.84 351.5077 L110.68 346.0923 L128.52 340.6769 L146.36 335.2615 L164.2 329.8462 L182.04 324.4308 L199.88 319.0154 L217.72 313.6 L235.56 308.1846 L253.4 302.7692 L271.24 297.3539 L289.08 291.9384 L306.92 286.5231 L324.76 281.1077 L342.6 275.6923 L360.44 270.2769 L378.28 264.8615 L396.12 259.4462 L413.96 254.0308 L431.8 248.6154 L449.64 243.2 L467.48 237.7846 L485.32 232.3692 L503.16 226.9538 L521 221.5385" style="fill:none; fill-rule:evenodd; stroke:rgb(237,177,32);"/>
    </g>
    <g transform="translate(97.3,49.6)" style="font-size:18px; text-rendering:geometricPrecision; color-rendering:optimizeQuality; image-rendering:optimizeQuality; font-family:'Helvetica'; color-interpolation:linearRGB; font-weight:bold;">
      <text x="0" y="4.5" style="stroke: none; white-space: pre;">A</text>
    </g>
    <g style="fill:white; text-rendering:optimizeSpeed; color-rendering:optimizeSpeed; image-rendering:optimizeSpeed; shape-rendering:crispEdges; color-interpolation:sRGB; stroke:white;" transform="matrix(1, 0, 0, 1, -49.783134, 15.819278)">
      <path style="stroke:none;" d="M137 110 L137 45 L324 45 L324 110 Z"/>
    </g>
    <g transform="matrix(1, 0, 0, 1, 126.216866, 78.819275)" style="font-size:14px; text-rendering:geometricPrecision; color-rendering:optimizeQuality; image-rendering:optimizeQuality; font-family:'Helvetica'; color-interpolation:linearRGB;">
      <text x="0" y="0" style="stroke: none; white-space: pre;">Bowhead, 4.2 m</text>
    </g>
    <g transform="matrix(1, 0, 0, 1, 228.216873, 71.819275)" style="font-size:11px; text-rendering:geometricPrecision; color-rendering:optimizeQuality; image-rendering:optimizeQuality; font-family:'Helvetica'; color-interpolation:linearRGB;">
      <text x="0" y="0" style="stroke: none; white-space: pre;">2</text>
    </g>
    <g transform="matrix(1, 0, 0, 1, 235.216873, 78.819275)" style="font-size:14px; text-rendering:geometricPrecision; color-rendering:optimizeQuality; image-rendering:optimizeQuality; font-family:'Helvetica'; color-interpolation:linearRGB;">
      <text x="0" y="0" style="stroke: none; white-space: pre;"> gape</text>
    </g>
    <g style="stroke-linecap:butt; fill:rgb(0,114,189); text-rendering:geometricPrecision; color-rendering:optimizeQuality; image-rendering:optimizeQuality; stroke-linejoin:bevel; stroke-dasharray:8,8; color-interpolation:linearRGB; stroke:rgb(0,114,189); stroke-width:2; stroke-miterlimit:1;" transform="matrix(1, 0, 0, 1, -49.783134, 15.819278)">
      <line y2="57" style="fill:none;" x1="143" x2="173" y1="57"/>
    </g>
    <g transform="matrix(1, 0, 0, 1, 126.216866, 99.819275)" style="font-size:14px; text-rendering:geometricPrecision; color-rendering:optimizeQuality; image-rendering:optimizeQuality; font-family:'Helvetica'; color-interpolation:linearRGB;">
      <text x="0" y="0" style="stroke: none; white-space: pre;">Right, 1 m</text>
    </g>
    <g transform="matrix(1, 0, 0, 1, 190.216873, 92.819275)" style="font-size:11px; text-rendering:geometricPrecision; color-rendering:optimizeQuality; image-rendering:optimizeQuality; font-family:'Helvetica'; color-interpolation:linearRGB;">
      <text x="0" y="0" style="stroke: none; white-space: pre;">2</text>
    </g>
    <g transform="matrix(1, 0, 0, 1, 197.216873, 99.819275)" style="font-size:14px; text-rendering:geometricPrecision; color-rendering:optimizeQuality; image-rendering:optimizeQuality; font-family:'Helvetica'; color-interpolation:linearRGB;">
      <text x="0" y="0" style="stroke: none; white-space: pre;"> gape</text>
    </g>
    <g style="stroke-linecap:butt; fill:rgb(217,83,25); text-rendering:geometricPrecision; color-rendering:optimizeQuality; image-rendering:optimizeQuality; stroke-linejoin:bevel; stroke-dasharray:8,8; color-interpolation:linearRGB; stroke:rgb(217,83,25); stroke-width:2; stroke-miterlimit:1;" transform="matrix(1, 0, 0, 1, -49.783134, 15.819278)">
      <line y2="77.5" style="fill:none;" x1="143" x2="173" y1="77.5"/>
    </g>
    <g transform="matrix(1, 0, 0, 1, 126.216866, 119.819275)" style="font-size:14px; text-rendering:geometricPrecision; color-rendering:optimizeQuality; image-rendering:optimizeQuality; font-family:'Helvetica'; color-interpolation:linearRGB;">
      <text x="0" y="0" style="stroke: none; white-space: pre;">Right, 2 m</text>
    </g>
    <g transform="matrix(1, 0, 0, 1, 190.216873, 112.819275)" style="font-size:11px; text-rendering:geometricPrecision; color-rendering:optimizeQuality; image-rendering:optimizeQuality; font-family:'Helvetica'; color-interpolation:linearRGB;">
      <text x="0" y="0" style="stroke: none; white-space: pre;">2</text>
    </g>
    <g transform="matrix(1, 0, 0, 1, 197.216873, 119.819275)" style="font-size:14px; text-rendering:geometricPrecision; color-rendering:optimizeQuality; image-rendering:optimizeQuality; font-family:'Helvetica'; color-interpolation:linearRGB;">
      <text x="0" y="0" style="stroke: none; white-space: pre;"> gape</text>
    </g>
    <g style="stroke-linecap:butt; fill:rgb(237,177,32); text-rendering:geometricPrecision; color-rendering:optimizeQuality; image-rendering:optimizeQuality; stroke-linejoin:bevel; stroke-dasharray:8,8; color-interpolation:linearRGB; stroke:rgb(237,177,32); stroke-width:2; stroke-miterlimit:1;" transform="matrix(1, 0, 0, 1, -49.783134, 15.819278)">
      <line y2="98" style="fill:none;" x1="143" x2="173" y1="98"/>
    </g>
    <g style="stroke-linecap:butt; fill:rgb(38,38,38); text-rendering:geometricPrecision; color-rendering:optimizeQuality; image-rendering:optimizeQuality; color-interpolation:linearRGB; stroke:rgb(38,38,38); stroke-width:0.5;" transform="matrix(1, 0, 0, 1, -49.783134, 15.819278)">
      <path d="M137 110 L137 45 L324 45 L324 110 Z" style="fill:none; fill-rule:evenodd;"/>
    </g>
    <path d="M 88.068 323.203 L 138.198 323.203 L 138.198 316.95 L 160.912 325.286 L 138.198 333.623 L 138.198 327.372 L 88.068 327.372 L 88.068 323.203 Z" style="stroke-width: 0px; stroke: none;" transform="matrix(0, 1, -1, 0, 449.776501, 200.796497)"/>
    <text style="font-family: sans-serif; stroke: none; white-space: pre; text-anchor: middle;" x="150.941" y="193.245" transform="matrix(1, 0, 0, 1, -26.870993, 62.227562)">Mean Bowhead <tspan x="150.9409942626953" dy="1em">​</tspan>Whale Swimming <tspan x="150.9409942626953" dy="1em">​</tspan>Speed</text>
    <text style="font-family: sans-serif; stroke: none; white-space: pre; font-size: 12px; text-anchor: middle;" x="150.816" y="179.392" transform="matrix(1, 0, 0, 1, 59.408321, 102.57589)">Mean Right <tspan x="150.8159942626953" dy="1em">​</tspan>Whale Swimming <tspan x="150.8159942626953" dy="1em">​</tspan>Speed</text>
    <path d="M 158.788 332.275 L 192.45 332.914 L 192.45 326.661 L 214.428 334.997 L 192.45 343.334 L 192.45 337.083 L 158.872 336.263 L 158.788 332.275 Z" style="stroke-width: 0px; stroke: none;" transform="matrix(0, 1, -1, 0, 521.605507, 148.389519)"/>
    <text x="-14.269" y="336.086" style="white-space: pre; fill: rgb(51, 51, 51); font-family: sans-serif; font-size: 24px;"> </text>
  </g>
</svg>