<?xml version="1.0" encoding="utf-8"?>
<svg style="fill-opacity:1; color-rendering:auto; color-interpolation:auto; stroke:black; text-rendering:auto; stroke-linecap:square; stroke-miterlimit:10; stroke-opacity:1; shape-rendering:auto; fill:black; stroke-dasharray:none; font-weight:normal; stroke-width:1; font-family:'Dialog'; font-style:normal; stroke-linejoin:miter; font-size:12px; stroke-dashoffset:0; image-rendering:auto;" width="576" height="432" id="svg2" version="1.1" viewBox="-626.071 -255.395 560.431 441.802" xmlns="http://www.w3.org/2000/svg" xmlns:bx="https://boxy-svg.com">
  <g transform="matrix(1, 0, 0, 1, -646.770203, -241.279099)">
    <g style="text-rendering: geometricPrecision; stroke-width: 0.5; color-interpolation: linearRGB; color-rendering: optimizeQuality; stroke-linejoin: round; pointer-events: none;">
      <line y2="384" style="fill: none; stroke-width: 1px;" x1="75" x2="521" y1="384"/>
      <line y2="379.54" style="fill: none; stroke-width: 1px;" x1="75" x2="75" y1="384"/>
      <line y2="379.54" style="fill: none; stroke-width: 1px;" x1="124.5556" x2="124.5556" y1="384"/>
      <line y2="379.54" style="fill: none; stroke-width: 1px;" x1="174.1111" x2="174.1111" y1="384"/>
      <line y2="379.54" style="fill: none; stroke-width: 1px;" x1="223.6667" x2="223.6667" y1="384"/>
      <line y2="379.54" style="fill: none; stroke-width: 1px;" x1="273.2222" x2="273.2222" y1="384"/>
      <line y2="379.54" style="fill: none; stroke-width: 1px;" x1="322.7778" x2="322.7778" y1="384"/>
      <line y2="379.54" style="fill: none; stroke-width: 1px;" x1="372.3333" x2="372.3333" y1="384"/>
      <line y2="379.54" style="fill: none; stroke-width: 1px;" x1="421.8889" x2="421.8889" y1="384"/>
      <line y2="379.54" style="fill: none; stroke-width: 1px;" x1="471.4445" x2="471.4445" y1="384"/>
      <line y2="379.54" style="fill: none; stroke-width: 1px;" x1="521" x2="521" y1="384"/>
    </g>
    <g transform="matrix(1, 0, 0, 1, 75, 390.399994)" style="text-rendering:geometricPrecision; font-family:'Helvetica'; color-interpolation:linearRGB; color-rendering:optimizeQuality; image-rendering:optimizeQuality;">
      <text style="font-size: 11px; stroke: none; white-space: pre; pointer-events: none;" x="-7" y="10">10</text>
    </g>
    <g transform="matrix(1, 0, 0, 1, 124.555603, 390.399994)" style="text-rendering:geometricPrecision; font-family:'Helvetica'; color-interpolation:linearRGB; color-rendering:optimizeQuality; image-rendering:optimizeQuality;">
      <text style="font-size: 11px; stroke: none; white-space: pre;" x="-12" y="10">10.5</text>
    </g>
    <g transform="matrix(1, 0, 0, 1, 174.111099, 390.399994)" style="text-rendering:geometricPrecision; font-family:'Helvetica'; color-interpolation:linearRGB; color-rendering:optimizeQuality; image-rendering:optimizeQuality;">
      <text style="font-size: 11px; stroke: none; white-space: pre;" x="-7" y="10">11</text>
    </g>
    <g transform="matrix(1, 0, 0, 1, 223.666702, 390.399994)" style="text-rendering:geometricPrecision; font-family:'Helvetica'; color-interpolation:linearRGB; color-rendering:optimizeQuality; image-rendering:optimizeQuality;">
      <text style="font-size: 11px; stroke: none; white-space: pre;" x="-12" y="10">11.5</text>
    </g>
    <g transform="matrix(1, 0, 0, 1, 273.222198, 390.399994)" style="text-rendering:geometricPrecision; font-family:'Helvetica'; color-interpolation:linearRGB; color-rendering:optimizeQuality; image-rendering:optimizeQuality;">
      <text style="font-size: 11px; stroke: none; white-space: pre;" x="-7" y="10">12</text>
    </g>
    <g transform="matrix(1, 0, 0, 1, 322.777802, 390.399994)" style="text-rendering:geometricPrecision; font-family:'Helvetica'; color-interpolation:linearRGB; color-rendering:optimizeQuality; image-rendering:optimizeQuality;">
      <text style="font-size: 11px; stroke: none; white-space: pre;" x="-12" y="10">12.5</text>
    </g>
    <g transform="matrix(1, 0, 0, 1, 372.333313, 390.399994)" style="text-rendering:geometricPrecision; font-family:'Helvetica'; color-interpolation:linearRGB; color-rendering:optimizeQuality; image-rendering:optimizeQuality;">
      <text style="font-size: 11px; stroke: none; white-space: pre;" x="-7" y="10">13</text>
    </g>
    <g transform="matrix(1, 0, 0, 1, 421.888885, 390.399994)" style="text-rendering:geometricPrecision; font-family:'Helvetica'; color-interpolation:linearRGB; color-rendering:optimizeQuality; image-rendering:optimizeQuality;">
      <text style="font-size: 11px; stroke: none; white-space: pre;" x="-12" y="10">13.5</text>
    </g>
    <g transform="matrix(1, 0, 0, 1, 471.444489, 390.399994)" style="text-rendering:geometricPrecision; font-family:'Helvetica'; color-interpolation:linearRGB; color-rendering:optimizeQuality; image-rendering:optimizeQuality;">
      <text style="font-size: 11px; stroke: none; white-space: pre;" x="-7" y="10">14</text>
    </g>
    <g transform="matrix(1, 0, 0, 1, 521, 390.399994)" style="text-rendering:geometricPrecision; font-family:'Helvetica'; color-interpolation:linearRGB; color-rendering:optimizeQuality; image-rendering:optimizeQuality;">
      <text style="font-size: 11px; stroke: none; white-space: pre;" x="-12" y="10">14.5</text>
    </g>
    <g transform="matrix(1, 0, 0, 1, 298.000214, 405.399994)" style="font-size:13px; text-rendering:geometricPrecision; color-rendering:optimizeQuality; image-rendering:optimizeQuality; font-family:'Helvetica'; color-interpolation:linearRGB;">
      <text x="-48.5" y="11" style="stroke: none; white-space: pre;">Body Length (m)</text>
    </g>
    <g style="fill:rgb(123,50,148); text-rendering:geometricPrecision; color-rendering:optimizeQuality; image-rendering:optimizeQuality; stroke-linejoin:round; color-interpolation:linearRGB; stroke:rgb(123,50,148); stroke-width:0.5;">
      <path d="M 75 384 L 75 32" style="fill: none; stroke-width: 1px;"/>
      <path d="M 75 384 L 79.46 384" style="fill: none; stroke-width: 1px;"/>
      <path d="M 75 296 L 79.46 296" style="fill: none; stroke-width: 1px;"/>
      <path d="M 75 208 L 79.46 208" style="fill: none; stroke-width: 1px;"/>
      <path d="M 75 120 L 79.46 120" style="fill: none; stroke-width: 1px;"/>
      <path d="M 75 32 L 79.46 32" style="fill: none; stroke-width: 1px;"/>
    </g>
    <g transform="matrix(1, 0, 0, 1, 70.599998, 383)" style="fill:rgb(123,50,148); text-rendering:geometricPrecision; color-rendering:optimizeQuality; image-rendering:optimizeQuality; font-family:'Helvetica'; color-interpolation:linearRGB; stroke:rgb(123,50,148);">
      <text style="font-size: 11px; stroke: none; white-space: pre;" x="-17" y="3.5">0.5</text>
    </g>
    <g transform="matrix(1, 0, 0, 1, 70.599998, 296)" style="fill:rgb(123,50,148); text-rendering:geometricPrecision; color-rendering:optimizeQuality; image-rendering:optimizeQuality; font-family:'Helvetica'; color-interpolation:linearRGB; stroke:rgb(123,50,148);">
      <text style="font-size: 11px; stroke: none; white-space: pre;" x="-7" y="3.5">1</text>
    </g>
    <g transform="matrix(1, 0, 0, 1, 70.599998, 208)" style="fill:rgb(123,50,148); text-rendering:geometricPrecision; color-rendering:optimizeQuality; image-rendering:optimizeQuality; font-family:'Helvetica'; color-interpolation:linearRGB; stroke:rgb(123,50,148);">
      <text style="font-size: 11px; stroke: none; white-space: pre;" x="-17" y="3.5">1.5</text>
    </g>
    <g transform="matrix(1, 0, 0, 1, 70.599998, 120)" style="fill:rgb(123,50,148); text-rendering:geometricPrecision; color-rendering:optimizeQuality; image-rendering:optimizeQuality; font-family:'Helvetica'; color-interpolation:linearRGB; stroke:rgb(123,50,148);">
      <text style="font-size: 11px; stroke: none; white-space: pre;" x="-7" y="3.5">2</text>
    </g>
    <g transform="matrix(1, 0, 0, 1, 70.599998, 32)" style="fill:rgb(123,50,148); text-rendering:geometricPrecision; color-rendering:optimizeQuality; image-rendering:optimizeQuality; font-family:'Helvetica'; color-interpolation:linearRGB; stroke:rgb(123,50,148);">
      <text style="font-size: 11px; stroke: none; white-space: pre;" x="-17" y="3.5">2.5</text>
    </g>
    <g transform="matrix(0, -1, 1, 0, 48, 255)" style="font-size:13px; fill:rgb(123,50,148); text-rendering:geometricPrecision; color-rendering:optimizeQuality; image-rendering:optimizeQuality; font-family:'Helvetica'; color-interpolation:linearRGB; stroke:rgb(123,50,148);">
      <text x="0" y="0" style="stroke: none; white-space: pre;">Gape Area (m</text>
    </g>
    <g transform="matrix(0, -1, 1, 0, 42, 173)" style="font-size:10px; fill:rgb(123,50,148); text-rendering:geometricPrecision; color-rendering:optimizeQuality; image-rendering:optimizeQuality; font-family:'Helvetica'; color-interpolation:linearRGB; stroke:rgb(123,50,148);">
      <text x="0" y="0" style="stroke: none; white-space: pre;">2</text>
    </g>
    <g transform="matrix(0, -1, 1, 0, 48, 167)" style="font-size:13px; fill:rgb(123,50,148); text-rendering:geometricPrecision; color-rendering:optimizeQuality; image-rendering:optimizeQuality; font-family:'Helvetica'; color-interpolation:linearRGB; stroke:rgb(123,50,148);">
      <text x="0" y="0" style="stroke: none; white-space: pre;">)</text>
    </g>
    <g style="stroke-linecap:butt; fill:rgb(237,177,32); text-rendering:geometricPrecision; color-rendering:optimizeQuality; image-rendering:optimizeQuality; stroke-linejoin:round; color-interpolation:linearRGB; stroke:rgb(237,177,32); stroke-width:0.5;">
      <path d="M85.935 295.1062 L181.5578 259.8395 L237.4936 239.2097 L277.1807 224.5727 L307.9644 213.2193 L333.1164 203.943 L354.3822 196.0999 L372.8036 189.3059 L389.0523 183.3132 L403.5872 177.9525 L416.7357 173.1032 L428.7393 168.6762 L439.7816 164.6037 L450.0051 160.8331 L459.5229 157.3228 L468.4263 154.0391 L476.7898 150.9546 L484.6751 148.0464 L492.1339 145.2955 L499.2101 142.6858" style="fill: none; fill-rule: evenodd; stroke: rgb(255, 41, 0); stroke-width: 1px;"/>
      <path style="fill: none; stroke-dasharray: 1, 3; stroke-miterlimit: 1; fill-rule: evenodd; stroke-linejoin: bevel; stroke: rgb(255, 41, 0);" d="M85.935 324.6061 L181.5578 285.2032 L237.4936 262.494 L277.1807 246.5845 L307.9644 234.3829 L333.1164 224.5151 L354.3822 216.2498 L372.8036 209.1516 L389.0523 202.9402 L403.5872 197.4246 L416.7357 192.4691 L428.7393 187.9738 L439.7816 183.8629 L450.0051 180.0778 L459.5229 176.5721 L468.4263 173.3086 L476.7898 170.257 L484.6751 167.3921 L492.1339 164.693 L499.2101 162.1422"/>
      <path style="fill: none; stroke-dasharray: 1, 3; stroke-miterlimit: 1; fill-rule: evenodd; stroke-linejoin: bevel; stroke: rgb(255, 41, 0);" d="M85.935 265.6064 L181.5578 234.4758 L237.4936 215.9255 L277.1807 202.5609 L307.9644 192.0558 L333.1164 183.3708 L354.3822 175.95 L372.8036 169.4602 L389.0523 163.6863 L403.5872 158.4805 L416.7357 153.7374 L428.7393 149.3786 L439.7816 145.3445 L450.0051 141.5885 L459.5229 138.0735 L468.4263 134.7697 L476.7898 131.6523 L484.6751 128.7008 L492.1339 125.898 L499.2101 123.2293"/>
      <path d="M85.935 331.7101 L181.5578 287.6736 L237.4936 259.4377 L277.1807 238.2955 L307.9644 221.2627 L333.1164 206.9349 L354.3822 194.5326 L372.8036 183.5757 L389.0523 173.7465 L403.5872 164.8233 L416.7357 156.6449 L428.7393 149.0905 L439.7816 142.0668 L450.0051 135.5003 L459.5229 129.3322 L468.4263 123.5144 L476.7898 118.0072 L484.6751 112.7775 L492.1339 107.7972 L499.2101 103.0423" style="fill: none; fill-rule: evenodd; stroke: rgb(123, 50, 148); stroke-width: 1px;"/>
    </g>
    <g style="stroke-linecap:butt; fill:rgb(123,50,148); text-rendering:geometricPrecision; color-rendering:optimizeQuality; image-rendering:optimizeQuality; stroke-linejoin:bevel; stroke-dasharray:1,3; color-interpolation:linearRGB; stroke:rgb(123,50,148); stroke-width:0.5; stroke-miterlimit:1;">
      <path d="M85.935 356.9919 L181.5578 312.3098 L237.4936 283.8974 L277.1807 262.8208 L307.9644 245.9899 L333.1164 231.9452 L354.3822 219.8758 L372.8036 209.2824 L389.0523 199.8352 L403.5872 191.3045 L416.7357 183.5238 L428.7393 176.3684 L439.7816 169.7427 L450.0051 163.5715 L459.5229 157.7946 L468.4263 152.3631 L476.7898 147.2369 L484.6751 142.3824 L492.1339 137.7712 L499.2101 133.3794" style="fill:none; fill-rule:evenodd;"/>
      <path d="M85.935 306.4282 L181.5578 263.0373 L237.4936 234.9779 L277.1807 213.7701 L307.9644 196.5354 L333.1164 181.9246 L354.3822 169.1894 L372.8036 157.8691 L389.0523 147.6579 L403.5872 138.3421 L416.7357 129.7661 L428.7393 121.8126 L439.7816 114.3908 L450.0051 107.4291 L459.5229 100.8697 L468.4263 94.6656 L476.7898 88.7775 L484.6751 83.1726 L492.1339 77.8231 L499.2101 72.7052" style="fill:none; fill-rule:evenodd;"/>
    </g>
    <g style="fill:rgb(123,50,148); text-rendering:optimizeSpeed; color-rendering:optimizeSpeed; image-rendering:optimizeSpeed; shape-rendering:crispEdges; color-interpolation:sRGB; stroke:rgb(123,50,148);">
      <path style="stroke:none;" d="M184.5 287.5 L183.6213 285.3787 L181.5 284.5 L179.3787 285.3787 L178.5 287.5 L179.3787 289.6213 L181.5 290.5 L183.6213 289.6213 L184.5 287.5 Z"/>
    </g>
    <g style="stroke-linecap:butt; fill:rgb(123,50,148); text-rendering:geometricPrecision; color-rendering:optimizeQuality; image-rendering:optimizeQuality; stroke-linejoin:round; color-interpolation:linearRGB; stroke:rgb(123,50,148);">
      <path d="M184.5 287.5 L183.6213 285.3787 L181.5 284.5 L179.3787 285.3787 L178.5 287.5 L179.3787 289.6213 L181.5 290.5 L183.6213 289.6213 Z" style="fill:none; fill-rule:evenodd;"/>
    </g>
    <g style="fill:rgb(123,50,148); text-rendering:optimizeSpeed; color-rendering:optimizeSpeed; image-rendering:optimizeSpeed; shape-rendering:crispEdges; color-interpolation:sRGB; stroke:rgb(123,50,148);">
      <path style="stroke:none;" d="M240.5 259.5 L239.6213 257.3787 L237.5 256.5 L235.3787 257.3787 L234.5 259.5 L235.3787 261.6213 L237.5 262.5 L239.6213 261.6213 L240.5 259.5 Z"/>
    </g>
    <g style="stroke-linecap:butt; fill:rgb(123,50,148); text-rendering:geometricPrecision; color-rendering:optimizeQuality; image-rendering:optimizeQuality; stroke-linejoin:round; color-interpolation:linearRGB; stroke:rgb(123,50,148);">
      <path d="M240.5 259.5 L239.6213 257.3787 L237.5 256.5 L235.3787 257.3787 L234.5 259.5 L235.3787 261.6213 L237.5 262.5 L239.6213 261.6213 Z" style="fill:none; fill-rule:evenodd;"/>
    </g>
    <g style="fill:rgb(123,50,148); text-rendering:optimizeSpeed; color-rendering:optimizeSpeed; image-rendering:optimizeSpeed; shape-rendering:crispEdges; color-interpolation:sRGB; stroke:rgb(123,50,148);">
      <path style="stroke:none;" d="M280.5 238.5 L279.6213 236.3787 L277.5 235.5 L275.3787 236.3787 L274.5 238.5 L275.3787 240.6213 L277.5 241.5 L279.6213 240.6213 L280.5 238.5 Z"/>
    </g>
    <g style="stroke-linecap:butt; fill:rgb(123,50,148); text-rendering:geometricPrecision; color-rendering:optimizeQuality; image-rendering:optimizeQuality; stroke-linejoin:round; color-interpolation:linearRGB; stroke:rgb(123,50,148);">
      <path d="M280.5 238.5 L279.6213 236.3787 L277.5 235.5 L275.3787 236.3787 L274.5 238.5 L275.3787 240.6213 L277.5 241.5 L279.6213 240.6213 Z" style="fill:none; fill-rule:evenodd;"/>
    </g>
    <g style="text-rendering: geometricPrecision; stroke-width: 0.5; color-interpolation: linearRGB; color-rendering: optimizeQuality; stroke-linejoin: round;" transform="matrix(1, 0, 0, 1.004454, 0.369978, -1.367893)">
      <path d="M 521 384 L 521 33" style="fill: none; stroke-width: 0.999243px;"/>
      <path d="M 521 384 L 516.54 384" style="fill: none; stroke-width: 0.999243px;"/>
      <path d="M 521 296.25 L 516.54 296.25" style="fill: none; stroke-width: 0.999243px;"/>
      <path d="M 521 208.5 L 516.54 208.5" style="fill: none; stroke-width: 0.999243px;"/>
      <path d="M 521 120.75 L 516.54 120.75" style="fill: none; stroke-width: 0.999243px;"/>
      <path d="M 521 33 L 516.54 33" style="fill: none; stroke-width: 0.999243px;"/>
    </g>
    <g style="text-rendering:geometricPrecision; stroke-width:0.5; color-interpolation:linearRGB; color-rendering:optimizeQuality; stroke-linejoin:round; image-rendering:optimizeQuality;" transform="matrix(1, 0, 0, 1, 0.369978, -1.220896)">
      <path d="M 75 33 L 521 33" style="fill: none; stroke-width: 1px;"/>
      <path d="M 182.04 33 L 182.04 37.46" style="fill: none; stroke-width: 1px;"/>
      <path d="M 277.187 33 L 277.187 37.46" style="fill: none; stroke-width: 1px;"/>
      <path d="M 334.671 33 L 334.671 37.46" style="fill: none; stroke-width: 1px;"/>
      <path d="M 374.316 33 L 374.316 37.46" style="fill: none; stroke-width: 1px;"/>
      <path d="M 405.04 33 L 405.04 37.46" style="fill: none; stroke-width: 1px;"/>
      <path d="M 428.827 33 L 428.827 37.46" style="fill: none; stroke-width: 1px;"/>
      <path d="M 451.622 33 L 451.622 37.46" style="fill: none; stroke-width: 1px;"/>
      <path d="M 467.48 33 L 467.48 37.46" style="fill: none; stroke-width: 1px;"/>
      <path d="M 486.311 33 L 486.311 37.46" style="fill: none; stroke-width: 1px;"/>
    </g>
    <g transform="matrix(1, 0, 0, 1, 58.089218, -147.298767)"/>
    <g style="fill:rgb(123,50,148); text-rendering:optimizeSpeed; color-rendering:optimizeSpeed; image-rendering:optimizeSpeed; shape-rendering:crispEdges; color-interpolation:sRGB; stroke:rgb(123,50,148);">
      <path style="stroke:none;" d="M419.5 156.5 L418.6213 154.3787 L416.5 153.5 L414.3787 154.3787 L413.5 156.5 L414.3787 158.6213 L416.5 159.5 L418.6213 158.6213 L419.5 156.5 Z"/>
    </g>
    <g style="stroke-linecap:butt; fill:rgb(123,50,148); text-rendering:geometricPrecision; color-rendering:optimizeQuality; image-rendering:optimizeQuality; stroke-linejoin:round; color-interpolation:linearRGB; stroke:rgb(123,50,148);">
      <path d="M419.5 156.5 L418.6213 154.3787 L416.5 153.5 L414.3787 154.3787 L413.5 156.5 L414.3787 158.6213 L416.5 159.5 L418.6213 158.6213 Z" style="fill:none; fill-rule:evenodd;"/>
      <path d="M266.5 245.5 L265.6213 243.3787 L263.5 242.5 L261.3787 243.3787 L260.5 245.5 L261.3787 247.6213 L263.5 248.5 L265.6213 247.6213 Z" style="fill:none; fill-rule:evenodd;"/>
      <path d="M288.5 233.5 L287.6213 231.3787 L285.5 230.5 L283.3787 231.3787 L282.5 233.5 L283.3787 235.6213 L285.5 236.5 L287.6213 235.6213 Z" style="fill:none; fill-rule:evenodd;"/>
      <path d="M321.5 215.5 L320.6213 213.3787 L318.5 212.5 L316.3787 213.3787 L315.5 215.5 L316.3787 217.6213 L318.5 218.5 L320.6213 217.6213 Z" style="fill:none; fill-rule:evenodd;"/>
      <path d="M325.5 212.5 L324.6213 210.3787 L322.5 209.5 L320.3787 210.3787 L319.5 212.5 L320.3787 214.6213 L322.5 215.5 L324.6213 214.6213 Z" style="fill:none; fill-rule:evenodd;"/>
    </g>
    <g transform="matrix(1, 0, 0, 1, 182.039993, 28.6)" style="text-rendering:geometricPrecision; font-family:'Helvetica'; color-interpolation:linearRGB; color-rendering:optimizeQuality; image-rendering:optimizeQuality;">
      <text style="font-size: 11px; stroke: none; white-space: pre;" x="-3.5" y="-3">2</text>
    </g>
    <g transform="matrix(1, 0, 0, 1, 277.186707, 28.6)" style="text-rendering:geometricPrecision; font-family:'Helvetica'; color-interpolation:linearRGB; color-rendering:optimizeQuality; image-rendering:optimizeQuality;">
      <text style="font-size: 11px; stroke: none; white-space: pre;" x="-3.5" y="-3">4</text>
    </g>
    <g transform="matrix(1, 0, 0, 1, 334.671112, 28.6)" style="text-rendering:geometricPrecision; font-family:'Helvetica'; color-interpolation:linearRGB; color-rendering:optimizeQuality; image-rendering:optimizeQuality;">
      <text style="font-size: 11px; stroke: none; white-space: pre;" x="-3.5" y="-3">6</text>
    </g>
    <g transform="matrix(1, 0, 0, 1, 374.315613, 28.6)" style="text-rendering:geometricPrecision; font-family:'Helvetica'; color-interpolation:linearRGB; color-rendering:optimizeQuality; image-rendering:optimizeQuality;">
      <text style="font-size: 11px; stroke: none; white-space: pre;" x="-3.5" y="-3">8</text>
    </g>
    <g transform="matrix(1, 0, 0, 1, 405.040009, 28.6)" style="text-rendering:geometricPrecision; font-family:'Helvetica'; color-interpolation:linearRGB; color-rendering:optimizeQuality; image-rendering:optimizeQuality;">
      <text style="font-size: 11px; stroke: none; white-space: pre;" x="-7" y="-3">10</text>
    </g>
    <g transform="matrix(1, 0, 0, 1, 428.826599, 28.6)" style="text-rendering:geometricPrecision; font-family:'Helvetica'; color-interpolation:linearRGB; color-rendering:optimizeQuality; image-rendering:optimizeQuality;">
      <text style="font-size: 11px; stroke: none; white-space: pre;" x="-7" y="-3">12</text>
    </g>
    <g transform="matrix(1, 0, 0, 1, 451.622314, 28.6)" style="text-rendering:geometricPrecision; font-family:'Helvetica'; color-interpolation:linearRGB; color-rendering:optimizeQuality; image-rendering:optimizeQuality;">
      <text style="font-size: 11px; stroke: none; white-space: pre;" x="-7" y="-3">14</text>
    </g>
    <g transform="matrix(1, 0, 0, 1, 467.480011, 28.6)" style="text-rendering:geometricPrecision; font-family:'Helvetica'; color-interpolation:linearRGB; color-rendering:optimizeQuality; image-rendering:optimizeQuality;">
      <text style="font-size: 11px; stroke: none; white-space: pre;" x="-7" y="-3">16</text>
    </g>
    <g transform="matrix(1, 0, 0, 1, 486.311096, 28.6)" style="text-rendering:geometricPrecision; font-family:'Helvetica'; color-interpolation:linearRGB; color-rendering:optimizeQuality; image-rendering:optimizeQuality;">
      <text style="font-size: 11px; stroke: none; white-space: pre;" x="-7" y="-3">18</text>
    </g>
    <g transform="matrix(1, 0, 0, 1, 298.000214, 13.6)" style="font-size:13px; text-rendering:geometricPrecision; color-rendering:optimizeQuality; image-rendering:optimizeQuality; font-family:'Helvetica'; color-interpolation:linearRGB;">
      <text x="-34" y="-3" style="stroke: none; white-space: pre;">Age (years)</text>
    </g>
    <g transform="matrix(1, 0, 0, 1, 525.400024, 384)" style="text-rendering:geometricPrecision; font-family:'Helvetica'; color-interpolation:linearRGB; color-rendering:optimizeQuality; image-rendering:optimizeQuality;">
      <text style="font-size: 11px; stroke: none; white-space: pre;" x="0" y="3.5">0.5</text>
    </g>
    <g transform="matrix(1, 0, 0, 1, 525.400024, 296.25)" style="text-rendering:geometricPrecision; font-family:'Helvetica'; color-interpolation:linearRGB; color-rendering:optimizeQuality; image-rendering:optimizeQuality;">
      <text style="font-size: 11px; stroke: none; white-space: pre;" x="0" y="3.5">1</text>
    </g>
    <g transform="matrix(1, 0, 0, 1, 525.400024, 208.5)" style="text-rendering:geometricPrecision; font-family:'Helvetica'; color-interpolation:linearRGB; color-rendering:optimizeQuality; image-rendering:optimizeQuality;">
      <text style="font-size: 11px; stroke: none; white-space: pre;" x="0" y="3.5">1.5</text>
    </g>
    <g transform="matrix(1, 0, 0, 1, 525.400024, 120.75)" style="text-rendering:geometricPrecision; font-family:'Helvetica'; color-interpolation:linearRGB; color-rendering:optimizeQuality; image-rendering:optimizeQuality;">
      <text style="font-size: 11px; stroke: none; white-space: pre;" x="0" y="3.5">2</text>
    </g>
    <g transform="matrix(1, 0, 0, 1, 525.400024, 33)" style="text-rendering:geometricPrecision; font-family:'Helvetica'; color-interpolation:linearRGB; color-rendering:optimizeQuality; image-rendering:optimizeQuality;">
      <text style="font-size: 11px; stroke: none; white-space: pre;" x="0" y="3.5">2.5</text>
    </g>
    <g transform="matrix(0, -1, 1, 0, 548.074524, 155.009445)" style="font-size:13px; text-rendering:geometricPrecision; color-rendering:optimizeQuality; image-rendering:optimizeQuality; font-family:'Helvetica'; color-interpolation:linearRGB;">
      <text style="fill: rgb(255, 41, 0); stroke: none; white-space: pre;"><tspan x="-103" y="11" style="fill: rgb(0, 114, 189);">Head Width (m)</tspan><tspan>   Baleen Length (m)</tspan></text>
    </g>
    <g style="stroke-linecap:butt; fill:rgb(0,114,189); text-rendering:geometricPrecision; color-rendering:optimizeQuality; image-rendering:optimizeQuality; stroke-linejoin:round; color-interpolation:linearRGB; stroke:rgb(0,114,189); stroke-width:0.5;">
      <path d="M85.935 193.3808 L181.5578 166.799 L237.4936 151.2496 L277.1807 140.2171 L307.9644 131.6597 L333.1164 124.6677 L354.3822 118.7561 L372.8036 113.6353 L389.0523 109.1183 L403.5872 105.0778 L416.7357 101.4227 L428.7393 98.0859 L439.7816 95.0163 L450.0051 92.1743 L459.5229 89.5284 L468.4263 87.0534 L476.7898 84.7285 L484.6751 82.5365 L492.1339 80.463 L499.2101 78.496" style="fill: none; fill-rule: evenodd; stroke-width: 1px;"/>
      <path style="fill:none; stroke-dasharray:1,3; stroke-miterlimit:1; fill-rule:evenodd; stroke-linejoin:bevel;" d="M85.935 207.8985 L181.5578 182.718 L237.4936 167.9883 L277.1807 157.5374 L307.9644 149.4311 L333.1164 142.8078 L354.3822 137.2078 L372.8036 132.3569 L389.0523 128.0781 L403.5872 124.2506 L416.7357 120.7882 L428.7393 117.6272 L439.7816 114.7195 L450.0051 112.0273 L459.5229 109.5209 L468.4263 107.1763 L476.7898 104.974 L484.6751 102.8975 L492.1339 100.9334 L499.2101 99.07"/>
      <path style="fill:none; stroke-dasharray:1,3; stroke-miterlimit:1; fill-rule:evenodd; stroke-linejoin:bevel;" d="M85.935 178.8631 L181.5578 150.8799 L237.4936 134.5108 L277.1807 122.8968 L307.9644 113.8882 L333.1164 106.5277 L354.3822 100.3044 L372.8036 94.9136 L389.0523 90.1586 L403.5872 85.9051 L416.7357 82.0573 L428.7393 78.5445 L439.7816 75.3131 L450.0051 72.3213 L459.5229 69.536 L468.4263 66.9305 L476.7898 64.483 L484.6751 62.1754 L492.1339 59.9927 L499.2101 57.9219"/>
    </g>
    <path style="fill: rgb(0, 0, 0); stroke: rgb(0, 0, 0); stroke-width: 0.439232px; stroke-linecap: butt; stroke-linejoin: miter; stroke-opacity: 1;" d="M 97.617 86.548 L 108.389 95.186 L 152.269 92.952 L 156.071 81.484 L 153.854 72.549 L 137.378 51.697 L 128.191 51.995 L 117.894 52.144 L 112.349 56.762 L 104.745 67.633 L 97.775 80.74 Z" id="path4298"/>
    <path style="fill: rgb(179, 179, 179); stroke: rgb(0, 0, 0); stroke-width: 0.439232px; stroke-linecap: butt; stroke-linejoin: miter; stroke-opacity: 1;" d="M 109.974 90.718 C 109.974 90.718 111.067 88.3 111.715 87.144 C 112.579 85.602 113.544 84.117 114.567 82.676 C 115.555 81.285 116.544 79.876 117.735 78.655 C 118.932 77.428 120.256 76.306 121.696 75.377 C 123.028 74.519 123.812 73.65 125.972 73.293 C 128.158 72.931 129 72.914 131.358 73.441 C 132.686 73.741 134.003 74.217 135.161 74.931 C 136.612 75.827 137.789 77.118 138.963 78.356 C 140.235 79.7 141.26 81.257 142.447 82.676 C 144.451 85.073 144.045 84.53 144.664 85.465 C 145.399 86.568 146.408 88.783 146.408 88.783 L 146.565 89.675 L 149.259 104.123 L 147.2 112.015 L 142.289 118.271 L 134.211 121.1 L 124.23 121.398 L 115.042 118.122 L 110.449 109.782 C 110.449 109.782 108.705 101.441 108.705 100.696 C 108.705 99.952 109.974 90.718 109.974 90.718 Z" id="path4296"/>
    <path style="fill: rgb(255, 255, 255); stroke: rgb(0, 0, 0); stroke-width: 0.439232px; stroke-linecap: butt; stroke-linejoin: miter; stroke-opacity: 1;" d="M 119.952 56.017 L 117.26 58.697 L 113.775 61.825 L 110.448 65.847 L 107.755 69.272 L 104.111 75.974 L 101.894 80.144 L 101.26 81.781 L 99.994 81.781 L 98.251 83.569 L 97.3 85.058 L 98.568 82.377 L 100.469 79.846 L 102.052 77.611 L 104.111 74.037 L 106.963 69.122 L 111.082 63.017 L 113.457 59.442 L 115.993 56.017 L 117.419 54.08 L 117.576 53.783 L 118.844 53.336 L 119.952 53.783 L 121.221 55.272 Z" id="path4282"/>
    <path style="fill: rgb(255, 255, 255); stroke: rgb(0, 0, 0); stroke-width: 0.439232px; stroke-linecap: butt; stroke-linejoin: miter; stroke-opacity: 1;" d="M 131.041 56.315 L 134.04 58.293 L 136.831 60.953 C 136.816 60.933 136.911 60.905 138.595 63.224 L 140.632 66.383 C 140.632 66.383 140.485 65.937 142.13 69.122 C 144.056 72.854 144.664 74.632 144.664 74.632 L 147.2 80.442 L 148.626 83.867 L 150.685 81.931 L 152.585 80.74 L 154.645 79.846 L 151.635 74.484 L 149.575 71.208 C 149.575 71.208 149.202 70.75 147.761 68.59 C 147.184 67.726 147.549 68.036 146.09 65.996 C 145.523 65.2 145.479 65.469 144.19 63.761 C 143.413 62.732 142.675 61.674 141.912 60.633 C 141.204 59.667 139.78 57.74 139.78 57.74 L 137.72 55.338 L 135.477 53.783 L 134.211 53.038 L 131.517 53.484 L 130.883 54.676 L 131.041 56.315 Z" id="path4284"/>
    <path style="fill: rgb(26, 26, 26); stroke: rgb(0, 0, 0); stroke-width: 0.439232px; stroke-linecap: butt; stroke-linejoin: miter; stroke-opacity: 1;" d="M 153.558 79.229 C 154.825 78.837 154.688 78.791 155.424 79.059 C 156.389 79.411 156.849 80.696 156.849 80.696 L 158.531 84.122 C 158.531 84.122 159.503 86.963 159.701 88.44 C 159.843 89.524 159.727 89.857 159.701 91.717 C 159.67 93.906 159.383 95.72 159.383 95.589 L 158.432 101.1 L 157.482 104.823 L 156.69 108.398 L 155.74 111.674 L 154.631 114.951 C 154.631 114.951 154.145 116.686 153.742 117.484 C 153.282 118.388 152.844 119.104 150.864 120.08 C 149.918 120.547 147.832 120.997 147.832 120.997 L 144.931 121.465 L 141.958 121.653 L 137.84 121.653 L 133.404 121.802 L 130.234 122.1 C 130.234 122.1 127.921 122.559 126.751 122.696 C 125.226 122.875 123.69 122.966 122.156 122.993 C 120.519 123.022 117.246 122.844 117.246 122.844 L 110.751 122.547 C 110.751 122.547 107.254 122.349 105.524 122.1 C 103.84 121.857 104.666 121.916 102.83 121.399 C 101.172 120.932 101.827 120.826 100.771 120.164 C 100.19 119.799 99.688 119.307 99.247 118.781 C 98.652 118.074 98.179 117.266 97.761 116.441 C 97.302 115.537 96.653 113.611 96.653 113.611 C 96.653 113.611 96.065 110.033 95.81 108.208 C 95.538 106.259 95.354 104.238 95.068 102.292 C 94.842 100.755 94.612 99.218 94.435 97.675 C 94.241 95.991 93.959 92.611 93.959 92.611 L 94.118 88.59 C 94.118 88.59 94.587 87.098 95.068 86.505 C 96.51 84.724 96.884 84.183 96.884 84.183 L 99.028 82.037 C 99.028 82.037 99.57 81.219 100.711 81.166 C 101.852 81.112 103.026 81.739 103.026 81.739 C 103.026 81.739 105.207 82.908 105.999 83.825 C 107.325 85.359 108.521 87.696 108.521 87.696 L 109.959 92.314 L 110.91 96.334 L 112.177 100.654 L 113.443 104.674 L 114.711 108.548 C 114.711 108.548 116.174 111.787 117.404 113.015 C 118.494 114.103 119.93 114.837 121.364 115.398 C 122.972 116.025 124.718 116.265 126.434 116.441 C 127.958 116.595 130.394 116.59 131.027 116.441 C 131.661 116.292 132.395 116.43 134.83 115.398 C 136.949 114.5 138.949 113.163 138.949 113.163 C 138.949 113.163 140.804 111.008 141.423 109.761 C 142.092 108.414 142.64 106.974 143.006 105.505 C 143.929 101.815 143.781 102.171 144.176 100.505 C 144.646 98.517 144.945 98.615 145.601 94.548 C 145.941 92.434 146.077 88.145 146.077 88.145 L 147.185 84.718 L 148.453 83.378 C 148.453 83.378 149.145 82.734 150.985 81.106 C 151.928 80.272 152.543 79.542 153.558 79.229 Z" id="path4286" bx:origin="0.889 1.029"/>
    <path style="stroke: rgb(0, 0, 0); stroke-width: 0.439232px; stroke-linecap: butt; stroke-linejoin: miter; stroke-opacity: 1; fill: rgb(26, 26, 26);" d="M 119.636 47.975 C 116.963 50.466 116.24 51.786 111.717 55.825 C 107.766 61.557 104.607 66.23 101.59 71.881 C 99.901 74.966 98.648 76.572 96.494 81.123 C 95.518 84.18 96.081 83.647 95.874 84.909 C 97.593 84.162 97.924 82.332 99.007 80.323 C 98.983 79.7 98.722 79.542 103.101 72.267 C 104.726 69.57 106.219 66.788 107.99 64.176 C 111.362 60.018 114.744 55.865 118.372 51.897 C 119.155 50.771 119.174 49.248 119.636 47.975 Z" id="path3831"/>
    <path style="stroke: rgb(0, 0, 0); stroke-width: 0.439232px; stroke-linecap: butt; stroke-linejoin: miter; stroke-opacity: 1; fill: rgb(26, 26, 26);" d="M 130.251 45.145 C 133.759 48.108 139.455 51.421 142.284 55.027 C 147.067 60.524 150.035 63.553 155.357 72.443 C 157.927 79.054 157.46 79.584 157.18 80.442 C 154.983 79.718 154.662 77.299 153.797 75.565 C 151.956 72.192 153.379 74.04 147.8 65.699 C 146.112 62.803 144.041 60.67 142.156 57.9 C 141.027 56.504 140.509 55.991 138.236 53.564 C 136.595 52.365 134.393 51.687 133.417 49.824 C 132.645 48.696 128.058 46.361 130.251 45.145 Z" id="path3837"/>
    <path style="stroke: rgb(0, 0, 0); stroke-width: 0.439232px; stroke-linecap: butt; stroke-linejoin: miter; stroke-opacity: 1; fill: rgb(26, 26, 26);" d="M 120.412 55.62 C 120.412 55.62 122.498 56.064 123.548 56.252 C 125.766 56.648 125.921 56.824 127.134 56.884 C 129.066 56.978 128.949 56.713 129.821 56.463 C 131.278 56.045 130.553 55.993 132.286 55.409 C 133.959 54.847 133.427 55.187 134.396 54.363 C 135.405 53.505 135.422 52.671 135.422 52.671 L 135.197 50.776 C 135.197 50.776 134.488 49.346 133.63 48.038 C 133.317 47.561 132.93 47.656 132.286 46.985 C 131.64 46.311 130.717 44.668 130.717 44.668 C 130.717 44.668 129.934 43.807 128.477 43.193 C 127.441 42.758 127.526 42.573 126.237 42.562 C 125.083 42.551 124.47 42.082 122.877 43.404 C 121.625 44.442 121.535 44.405 121.084 45.089 C 120.235 46.378 119.964 47.406 119.964 47.406 L 118.844 49.302 L 117.949 50.776 C 117.949 50.776 117.342 52.462 117.499 53.303 C 117.605 53.87 117.964 54.397 118.397 54.777 C 119.034 55.338 120.412 55.62 120.412 55.62 Z" id="path4280"/>
    <text x="800.021" y="366.025" style="white-space: pre; fill: rgb(51, 51, 51); font-family: sans-serif; font-size: 24px;"> </text>
  </g>
  <text x="-223.962" y="34.023" style="stroke: none; white-space: pre; font-size: 13px; font-style: normal; font-weight: normal; fill: rgb(0, 0, 0); fill-opacity: 1; stroke-width: 1; stroke-linecap: square; stroke-linejoin: miter; stroke-miterlimit: 10; stroke-opacity: 1; stroke-dasharray: none; stroke-dashoffset: 0; font-family: Helvetica;" id="text5803"><tspan style="font-size: 10px; word-spacing: 0px;" id="tspan5805">Body Length (m)</tspan></text>
  <text transform="matrix(0, -1, 1, 0, -543.069092, -236.499741)" id="text5793" style="font-size: 10px; stroke: none; font-family: Helvetica; white-space: pre;" y="189.888" x="-357.287"><tspan id="tspan5795" style="font-size: 10px; fill: rgb(0, 107, 177); fill-opacity: 1; word-spacing: 0px;">Head Width (m)   </tspan><tspan id="tspan5797" style="font-size: 10px; fill: rgb(0, 107, 177); fill-opacity: 1; word-spacing: 0px;"/><tspan id="tspan5799" style="font-size: 10px; fill: rgb(0, 107, 177); fill-opacity: 1; word-spacing: 0px;"/></text>
  <text id="text5787" transform="matrix(0, -1, 1, 0, -528.624939, -233.033142)" style="font-size: 10px; stroke: none; font-family: Helvetica; white-space: pre;" y="138.632" x="-358.428"><tspan id="tspan5789" style="font-size: 10px; fill: rgb(0, 107, 177); fill-opacity: 1; word-spacing: 0px;"/><tspan id="tspan5791" style="font-size: 10px; fill: rgb(255, 41, 0); fill-opacity: 1; stroke: none; word-spacing: 0px;">Baleen Length (m)   </tspan></text>
  <path style="fill: none; stroke: rgb(0, 0, 0); stroke-width: 1.23585px; stroke-linecap: butt; stroke-linejoin: miter; stroke-opacity: 1;" d="M -345.143 42.403 L -140.756 42.403" id="path4590"/>
  <path style="fill: rgb(255, 221, 85); stroke: rgb(255, 41, 0); stroke-linecap: butt; stroke-linejoin: miter; stroke-opacity: 1; stroke-width: 2px;" d="M -380.988 46.872 L -380.988 126.728" id="path4617"/>
  <path style="fill: rgb(0, 102, 255); stroke: rgb(12, 99, 248); stroke-width: 2.49994; stroke-miterlimit: 10; stroke-opacity: 1; stroke-dasharray: none;" d="M -325.693 75.979 L -325.693 106.605" id="path3761"/>
  <path style="fill:none;stroke:#000000;stroke-width:1px;stroke-linecap:butt;stroke-linejoin:miter;stroke-opacity:1" d="M -377.327 47.33 C -374.352 47.482 -371.377 47.635 -368.403 47.787 C -368.438 57.955 -369.721 68.094 -371.291 78.124 C -372.558 82.982 -372.875 87.945 -373.222 92.932 C -373.662 98.701 -374.983 104.345 -376.158 109.984 C -376.317 114.387 -375.728 118.847 -377.039 123.142 C -377.214 127.335 -377.129 119.395 -377.264 118.104 C -377.696 107.942 -377.317 97.776 -377.182 87.617 C -377.503 79.986 -377.007 72.373 -376.549 64.763 C -376.36 58.936 -377.006 53.138 -377.327 47.33 Z" id="path4609"/>
  <path style="fill:none;stroke:#000000;stroke-width:1px;stroke-linecap:butt;stroke-linejoin:miter;stroke-opacity:1" d="M -368.632 49.16 L -369.318 57.397 L -369.318 67.694 L -372.064 87.143 L -372.979 95.152 L -373.666 101.558 L -375.267 108.652 L -375.267 112.77 L -375.725 118.491 L -377.327 126.27" id="path4611"/>
  <path style="fill:none;stroke:#000000;stroke-width:1.26153219px;stroke-linecap:butt;stroke-linejoin:miter;stroke-opacity:1" d="M -297.428 69.341 C -299.34 76.189 -304.416 82.383 -311.722 83.636 C -320.217 85.653 -328.755 83.004 -337.106 81.709 C -343.247 81.099 -344.449 88.55 -343.382 93.091 C -342.909 98.827 -336.087 100.156 -331.938 97.314 C -323.136 95.504 -313.175 94.909 -305.465 100.378 C -300.084 102.972 -296.653 107.69 -295.09 113.355" id="path4531"/>
  <g transform="matrix(0.736602, 0, 0, 0.736602, -31.773514, 31.630146)">
    <path style="fill:none;stroke:#000000;stroke-width:1.22852242px;stroke-linecap:butt;stroke-linejoin:miter;stroke-opacity:1" d="M -355.153 50.227 C -374.334 55.391 -394.022 58.367 -413.499 61.965 C -425.902 65.789 -431.497 84.695 -419.883 92.564 C -407.007 102.002 -390.437 103.046 -375.608 107.679 C -361.242 111.581 -346.529 113.924 -331.659 114.44 C -317.191 116.663 -302.408 119.544 -287.882 115.898 C -261.1 111.473 -235.607 101.846 -210.422 92.067 C -197.18 87.137 -179.464 87.796 -170.826 100.54 C -163.661 110.427 -158.298 122.745 -147.047 128.641 C -135.917 130.302 -147.499 115.166 -146.285 109.191 C -147.686 100.547 -150.177 88.062 -155.825 80.98 C -154.665 67.634 -149.213 54.869 -149.752 41.466 C -146.948 36.307 -144.689 25.921 -153.102 34.711 C -165.685 42.888 -170.825 57.416 -178.115 69.586 C -188.055 79.189 -203.026 75.002 -213.943 69.511 C -238.128 58.909 -262.396 46.8 -288.874 43.38 C -311.298 41.07 -333.424 44.916 -355.153 50.227 Z" id="path4533"/>
    <path style="fill:none;stroke:#000000;stroke-width:1.22852242px;stroke-linecap:butt;stroke-linejoin:miter;stroke-opacity:1" d="M -354.715 50.227 C -347.927 44.207 -342.446 36.687 -334.727 31.748 C -332.2 30.442 -329.486 28.546 -326.494 29.368 C -322.233 29.774 -318.006 30.571 -313.86 31.618 C -311.933 32.321 -312.188 35.05 -314.157 35.411 C -317.013 37.78 -320.732 41.322 -322.951 44.324" id="path4537"/>
    <path style="fill:none;stroke:#000000;stroke-width:1.22852242px;stroke-linecap:butt;stroke-linejoin:miter;stroke-opacity:1" d="M -352.185 112.913 C -347.01 118.684 -341.99 125.057 -334.785 128.39 C -330.991 130.54 -326.97 132.415 -322.663 133.246 C -319.841 132.844 -317.503 131.043 -314.801 130.264 C -313.503 129.445 -311.665 129.614 -310.649 128.35 C -310.16 126.879 -311.602 125.654 -312.241 124.447 C -314.387 121.386 -317.136 118.822 -319.858 116.286" id="path4541"/>
  </g>
  <text id="text-1" style="font-size: 10px; stroke: none; font-family: Helvetica; white-space: pre;" y="-192.814" x="-495.584"><tspan id="tspan-1" style="font-size: 10px; fill: rgb(0, 107, 177); fill-opacity: 1; word-spacing: 0px;"/><tspan id="tspan-2" style="font-size: 10px; fill: rgb(255, 41, 0); fill-opacity: 1; stroke: none; word-spacing: 0px;">Baleen Length (m)   </tspan></text>
  <text id="text-2" style="font-size: 10px; stroke: none; font-family: Helvetica; white-space: pre;" y="-98.52" x="-554.579"><tspan id="tspan-3" style="font-size: 10px; fill: rgb(0, 107, 177); fill-opacity: 1; word-spacing: 0px;">Head Width (m)   </tspan><tspan id="tspan-4" style="font-size: 10px; fill: rgb(0, 107, 177); fill-opacity: 1; word-spacing: 0px;"/><tspan id="tspan-5" style="font-size: 10px; fill: rgb(0, 107, 177); fill-opacity: 1; word-spacing: 0px;"/></text>
  <path style="fill: rgb(0, 102, 255); stroke: rgb(12, 99, 248); stroke-miterlimit: 10; stroke-opacity: 1; stroke-dasharray: none; stroke-width: 2px;" d="M -519.1 -136.728 L -519.1 -88.484" id="path-2" transform="matrix(0, 1, -1, 0, -631.705975, 406.493977)"/>
  <text transform="matrix(1, 0, 0, 1, -488.560333, 30.989994)" style="fill: rgb(51, 51, 51); font-family: sans-serif; font-size: 10px; stroke: none; text-anchor: middle; white-space: pre;"><tspan x="67.072" y="-185.201" style="fill: rgb(123, 50, 148);">Gape =</tspan><tspan> </tspan><tspan x="67.0719985961914" dy="1.5em">​</tspan><tspan style="fill: rgb(12, 99, 248);">Width</tspan><tspan> x </tspan><tspan style="fill: rgb(255, 41, 0);">Length</tspan><tspan><tspan x="67.0719985961914" dy="1.5em">​</tspan>2  </tspan></text>
  <path style="fill: rgb(255, 221, 85); stroke: rgb(255, 41, 0); stroke-linecap: butt; stroke-linejoin: miter; stroke-opacity: 1; stroke-width: 2px;" d="M -507.576 -199.835 L -478.672 -162.592" id="path-1"/>
  <path style="fill: rgb(216, 216, 216); stroke: rgb(0, 0, 0);" d="M -461.344 -134.271 L -384.486 -134.234"/>
</svg>