<?xml version="1.0" encoding="utf-8"?>
<svg style="fill-opacity:1; color-rendering:auto; color-interpolation:auto; stroke:black; text-rendering:auto; stroke-linecap:square; stroke-miterlimit:10; stroke-opacity:1; shape-rendering:auto; fill:black; stroke-dasharray:none; font-weight:normal; stroke-width:1; font-family:'Dialog'; font-style:normal; stroke-linejoin:miter; font-size:12px; stroke-dashoffset:0; image-rendering:auto;" width="576" height="432" id="svg2" version="1.1" viewBox="-643.182 -248.424 774 438" xmlns="http://www.w3.org/2000/svg" xmlns:bx="https://boxy-svg.com">
  <g transform="matrix(1, 0, 0, 1, -646.770203, -241.279099)">
    <g style="text-rendering: geometricPrecision; stroke-width: 0.5; color-interpolation: linearRGB; color-rendering: optimizeQuality; stroke-linejoin: round; pointer-events: none;">
      <line y2="384" style="fill: none; stroke-width: 1px;" x1="75" x2="521" y1="384"/>
      <line y2="379.54" style="fill: none; stroke-width: 1px;" x1="75" x2="75" y1="384"/>
      <line y2="379.54" style="fill: none; stroke-width: 1px;" x1="124.5556" x2="124.5556" y1="384"/>
      <line y2="379.54" style="fill: none; stroke-width: 1px;" x1="174.1111" x2="174.1111" y1="384"/>
      <line y2="379.54" style="fill: none; stroke-width: 1px;" x1="223.6667" x2="223.6667" y1="384"/>
      <line y2="379.54" style="fill: none; stroke-width: 1px;" x1="273.2222" x2="273.2222" y1="384"/>
      <line y2="379.54" style="fill: none; stroke-width: 1px;" x1="322.7778" x2="322.7778" y1="384"/>
      <line y2="379.54" style="fill: none; stroke-width: 1px;" x1="372.3333" x2="372.3333" y1="384"/>
      <line y2="379.54" style="fill: none; stroke-width: 1px;" x1="421.8889" x2="421.8889" y1="384"/>
      <line y2="379.54" style="fill: none; stroke-width: 1px;" x1="471.4445" x2="471.4445" y1="384"/>
      <line y2="379.54" style="fill: none; stroke-width: 1px;" x1="521" x2="521" y1="384"/>
    </g>
    <g transform="matrix(1, 0, 0, 1, 75, 390.399994)" style="text-rendering:geometricPrecision; font-family:'Helvetica'; color-interpolation:linearRGB; color-rendering:optimizeQuality; image-rendering:optimizeQuality;">
      <text style="font-size: 11px; stroke: none; white-space: pre; pointer-events: none;" x="-7" y="10">10</text>
    </g>
    <g transform="matrix(1, 0, 0, 1, 124.555603, 390.399994)" style="text-rendering:geometricPrecision; font-family:'Helvetica'; color-interpolation:linearRGB; color-rendering:optimizeQuality; image-rendering:optimizeQuality;">
      <text style="font-size: 11px; stroke: none; white-space: pre;" x="-12" y="10">10.5</text>
    </g>
    <g transform="matrix(1, 0, 0, 1, 174.111099, 390.399994)" style="text-rendering:geometricPrecision; font-family:'Helvetica'; color-interpolation:linearRGB; color-rendering:optimizeQuality; image-rendering:optimizeQuality;">
      <text style="font-size: 11px; stroke: none; white-space: pre;" x="-7" y="10">11</text>
    </g>
    <g transform="matrix(1, 0, 0, 1, 223.666702, 390.399994)" style="text-rendering:geometricPrecision; font-family:'Helvetica'; color-interpolation:linearRGB; color-rendering:optimizeQuality; image-rendering:optimizeQuality;">
      <text style="font-size: 11px; stroke: none; white-space: pre;" x="-12" y="10">11.5</text>
    </g>
    <g transform="matrix(1, 0, 0, 1, 273.222198, 390.399994)" style="text-rendering:geometricPrecision; font-family:'Helvetica'; color-interpolation:linearRGB; color-rendering:optimizeQuality; image-rendering:optimizeQuality;">
      <text style="font-size: 11px; stroke: none; white-space: pre;" x="-7" y="10">12</text>
    </g>
    <g transform="matrix(1, 0, 0, 1, 322.777802, 390.399994)" style="text-rendering:geometricPrecision; font-family:'Helvetica'; color-interpolation:linearRGB; color-rendering:optimizeQuality; image-rendering:optimizeQuality;">
      <text style="font-size: 11px; stroke: none; white-space: pre;" x="-12" y="10">12.5</text>
    </g>
    <g transform="matrix(1, 0, 0, 1, 372.333313, 390.399994)" style="text-rendering:geometricPrecision; font-family:'Helvetica'; color-interpolation:linearRGB; color-rendering:optimizeQuality; image-rendering:optimizeQuality;">
      <text style="font-size: 11px; stroke: none; white-space: pre;" x="-7" y="10">13</text>
    </g>
    <g transform="matrix(1, 0, 0, 1, 421.888885, 390.399994)" style="text-rendering:geometricPrecision; font-family:'Helvetica'; color-interpolation:linearRGB; color-rendering:optimizeQuality; image-rendering:optimizeQuality;">
      <text style="font-size: 11px; stroke: none; white-space: pre;" x="-12" y="10">13.5</text>
    </g>
    <g transform="matrix(1, 0, 0, 1, 471.444489, 390.399994)" style="text-rendering:geometricPrecision; font-family:'Helvetica'; color-interpolation:linearRGB; color-rendering:optimizeQuality; image-rendering:optimizeQuality;">
      <text style="font-size: 11px; stroke: none; white-space: pre;" x="-7" y="10">14</text>
    </g>
    <g transform="matrix(1, 0, 0, 1, 521, 390.399994)" style="text-rendering:geometricPrecision; font-family:'Helvetica'; color-interpolation:linearRGB; color-rendering:optimizeQuality; image-rendering:optimizeQuality;">
      <text style="font-size: 11px; stroke: none; white-space: pre;" x="-12" y="10">14.5</text>
    </g>
    <g transform="matrix(1, 0, 0, 1, 298.000214, 405.399994)" style="font-size:13px; text-rendering:geometricPrecision; color-rendering:optimizeQuality; image-rendering:optimizeQuality; font-family:'Helvetica'; color-interpolation:linearRGB;">
      <text x="-48.5" y="11" style="stroke: none; white-space: pre;">Body Length (m)</text>
    </g>
    <g style="fill:rgb(123,50,148); text-rendering:geometricPrecision; color-rendering:optimizeQuality; image-rendering:optimizeQuality; stroke-linejoin:round; color-interpolation:linearRGB; stroke:rgb(123,50,148); stroke-width:0.5;">
      <path d="M 75 384 L 75 32" style="fill: none; stroke-width: 1px;"/>
      <path d="M 75 384 L 79.46 384" style="fill: none; stroke-width: 1px;"/>
      <path d="M 75 296 L 79.46 296" style="fill: none; stroke-width: 1px;"/>
      <path d="M 75 208 L 79.46 208" style="fill: none; stroke-width: 1px;"/>
      <path d="M 75 120 L 79.46 120" style="fill: none; stroke-width: 1px;"/>
      <path d="M 75 32 L 79.46 32" style="fill: none; stroke-width: 1px;"/>
    </g>
    <g transform="matrix(1, 0, 0, 1, 70.599998, 383)" style="fill:rgb(123,50,148); text-rendering:geometricPrecision; color-rendering:optimizeQuality; image-rendering:optimizeQuality; font-family:'Helvetica'; color-interpolation:linearRGB; stroke:rgb(123,50,148);">
      <text style="font-size: 11px; stroke: none; white-space: pre;" x="-17" y="3.5">0.5</text>
    </g>
    <g transform="matrix(1, 0, 0, 1, 70.599998, 296)" style="fill:rgb(123,50,148); text-rendering:geometricPrecision; color-rendering:optimizeQuality; image-rendering:optimizeQuality; font-family:'Helvetica'; color-interpolation:linearRGB; stroke:rgb(123,50,148);">
      <text style="font-size: 11px; stroke: none; white-space: pre;" x="-7" y="3.5">1</text>
    </g>
    <g transform="matrix(1, 0, 0, 1, 70.599998, 208)" style="fill:rgb(123,50,148); text-rendering:geometricPrecision; color-rendering:optimizeQuality; image-rendering:optimizeQuality; font-family:'Helvetica'; color-interpolation:linearRGB; stroke:rgb(123,50,148);">
      <text style="font-size: 11px; stroke: none; white-space: pre;" x="-17" y="3.5">1.5</text>
    </g>
    <g transform="matrix(1, 0, 0, 1, 70.599998, 120)" style="fill:rgb(123,50,148); text-rendering:geometricPrecision; color-rendering:optimizeQuality; image-rendering:optimizeQuality; font-family:'Helvetica'; color-interpolation:linearRGB; stroke:rgb(123,50,148);">
      <text style="font-size: 11px; stroke: none; white-space: pre;" x="-7" y="3.5">2</text>
    </g>
    <g transform="matrix(1, 0, 0, 1, 70.599998, 32)" style="fill:rgb(123,50,148); text-rendering:geometricPrecision; color-rendering:optimizeQuality; image-rendering:optimizeQuality; font-family:'Helvetica'; color-interpolation:linearRGB; stroke:rgb(123,50,148);">
      <text style="font-size: 11px; stroke: none; white-space: pre;" x="-17" y="3.5">2.5</text>
    </g>
    <g transform="matrix(0, -1, 1, 0, 48, 255)" style="font-size:13px; fill:rgb(123,50,148); text-rendering:geometricPrecision; color-rendering:optimizeQuality; image-rendering:optimizeQuality; font-family:'Helvetica'; color-interpolation:linearRGB; stroke:rgb(123,50,148);">
      <text x="0" y="0" style="stroke: none; white-space: pre;">Gape Area (m</text>
    </g>
    <g transform="matrix(0, -1, 1, 0, 42, 173)" style="font-size:10px; fill:rgb(123,50,148); text-rendering:geometricPrecision; color-rendering:optimizeQuality; image-rendering:optimizeQuality; font-family:'Helvetica'; color-interpolation:linearRGB; stroke:rgb(123,50,148);">
      <text x="0" y="0" style="stroke: none; white-space: pre;">2</text>
    </g>
    <g transform="matrix(0, -1, 1, 0, 48, 167)" style="font-size:13px; fill:rgb(123,50,148); text-rendering:geometricPrecision; color-rendering:optimizeQuality; image-rendering:optimizeQuality; font-family:'Helvetica'; color-interpolation:linearRGB; stroke:rgb(123,50,148);">
      <text x="0" y="0" style="stroke: none; white-space: pre;">)</text>
    </g>
    <g style="stroke-linecap:butt; fill:rgb(237,177,32); text-rendering:geometricPrecision; color-rendering:optimizeQuality; image-rendering:optimizeQuality; stroke-linejoin:round; color-interpolation:linearRGB; stroke:rgb(237,177,32); stroke-width:0.5;">
      <path d="M85.935 295.1062 L181.5578 259.8395 L237.4936 239.2097 L277.1807 224.5727 L307.9644 213.2193 L333.1164 203.943 L354.3822 196.0999 L372.8036 189.3059 L389.0523 183.3132 L403.5872 177.9525 L416.7357 173.1032 L428.7393 168.6762 L439.7816 164.6037 L450.0051 160.8331 L459.5229 157.3228 L468.4263 154.0391 L476.7898 150.9546 L484.6751 148.0464 L492.1339 145.2955 L499.2101 142.6858" style="fill: none; fill-rule: evenodd; stroke: rgb(255, 41, 0); stroke-width: 1px;"/>
      <path style="fill: none; stroke-dasharray: 1, 3; stroke-miterlimit: 1; fill-rule: evenodd; stroke-linejoin: bevel; stroke: rgb(255, 41, 0);" d="M85.935 324.6061 L181.5578 285.2032 L237.4936 262.494 L277.1807 246.5845 L307.9644 234.3829 L333.1164 224.5151 L354.3822 216.2498 L372.8036 209.1516 L389.0523 202.9402 L403.5872 197.4246 L416.7357 192.4691 L428.7393 187.9738 L439.7816 183.8629 L450.0051 180.0778 L459.5229 176.5721 L468.4263 173.3086 L476.7898 170.257 L484.6751 167.3921 L492.1339 164.693 L499.2101 162.1422"/>
      <path style="fill: none; stroke-dasharray: 1, 3; stroke-miterlimit: 1; fill-rule: evenodd; stroke-linejoin: bevel; stroke: rgb(255, 41, 0);" d="M85.935 265.6064 L181.5578 234.4758 L237.4936 215.9255 L277.1807 202.5609 L307.9644 192.0558 L333.1164 183.3708 L354.3822 175.95 L372.8036 169.4602 L389.0523 163.6863 L403.5872 158.4805 L416.7357 153.7374 L428.7393 149.3786 L439.7816 145.3445 L450.0051 141.5885 L459.5229 138.0735 L468.4263 134.7697 L476.7898 131.6523 L484.6751 128.7008 L492.1339 125.898 L499.2101 123.2293"/>
      <path d="M85.935 331.7101 L181.5578 287.6736 L237.4936 259.4377 L277.1807 238.2955 L307.9644 221.2627 L333.1164 206.9349 L354.3822 194.5326 L372.8036 183.5757 L389.0523 173.7465 L403.5872 164.8233 L416.7357 156.6449 L428.7393 149.0905 L439.7816 142.0668 L450.0051 135.5003 L459.5229 129.3322 L468.4263 123.5144 L476.7898 118.0072 L484.6751 112.7775 L492.1339 107.7972 L499.2101 103.0423" style="fill: none; fill-rule: evenodd; stroke: rgb(123, 50, 148); stroke-width: 1px;"/>
    </g>
    <g style="stroke-linecap:butt; fill:rgb(123,50,148); text-rendering:geometricPrecision; color-rendering:optimizeQuality; image-rendering:optimizeQuality; stroke-linejoin:bevel; stroke-dasharray:1,3; color-interpolation:linearRGB; stroke:rgb(123,50,148); stroke-width:0.5; stroke-miterlimit:1;">
      <path d="M85.935 356.9919 L181.5578 312.3098 L237.4936 283.8974 L277.1807 262.8208 L307.9644 245.9899 L333.1164 231.9452 L354.3822 219.8758 L372.8036 209.2824 L389.0523 199.8352 L403.5872 191.3045 L416.7357 183.5238 L428.7393 176.3684 L439.7816 169.7427 L450.0051 163.5715 L459.5229 157.7946 L468.4263 152.3631 L476.7898 147.2369 L484.6751 142.3824 L492.1339 137.7712 L499.2101 133.3794" style="fill:none; fill-rule:evenodd;"/>
      <path d="M85.935 306.4282 L181.5578 263.0373 L237.4936 234.9779 L277.1807 213.7701 L307.9644 196.5354 L333.1164 181.9246 L354.3822 169.1894 L372.8036 157.8691 L389.0523 147.6579 L403.5872 138.3421 L416.7357 129.7661 L428.7393 121.8126 L439.7816 114.3908 L450.0051 107.4291 L459.5229 100.8697 L468.4263 94.6656 L476.7898 88.7775 L484.6751 83.1726 L492.1339 77.8231 L499.2101 72.7052" style="fill:none; fill-rule:evenodd;"/>
    </g>
    <g style="fill:rgb(123,50,148); text-rendering:optimizeSpeed; color-rendering:optimizeSpeed; image-rendering:optimizeSpeed; shape-rendering:crispEdges; color-interpolation:sRGB; stroke:rgb(123,50,148);">
      <path style="stroke:none;" d="M184.5 287.5 L183.6213 285.3787 L181.5 284.5 L179.3787 285.3787 L178.5 287.5 L179.3787 289.6213 L181.5 290.5 L183.6213 289.6213 L184.5 287.5 Z"/>
    </g>
    <g style="stroke-linecap:butt; fill:rgb(123,50,148); text-rendering:geometricPrecision; color-rendering:optimizeQuality; image-rendering:optimizeQuality; stroke-linejoin:round; color-interpolation:linearRGB; stroke:rgb(123,50,148);">
      <path d="M184.5 287.5 L183.6213 285.3787 L181.5 284.5 L179.3787 285.3787 L178.5 287.5 L179.3787 289.6213 L181.5 290.5 L183.6213 289.6213 Z" style="fill:none; fill-rule:evenodd;"/>
    </g>
    <g style="fill:rgb(123,50,148); text-rendering:optimizeSpeed; color-rendering:optimizeSpeed; image-rendering:optimizeSpeed; shape-rendering:crispEdges; color-interpolation:sRGB; stroke:rgb(123,50,148);">
      <path style="stroke:none;" d="M240.5 259.5 L239.6213 257.3787 L237.5 256.5 L235.3787 257.3787 L234.5 259.5 L235.3787 261.6213 L237.5 262.5 L239.6213 261.6213 L240.5 259.5 Z"/>
    </g>
    <g style="stroke-linecap:butt; fill:rgb(123,50,148); text-rendering:geometricPrecision; color-rendering:optimizeQuality; image-rendering:optimizeQuality; stroke-linejoin:round; color-interpolation:linearRGB; stroke:rgb(123,50,148);">
      <path d="M240.5 259.5 L239.6213 257.3787 L237.5 256.5 L235.3787 257.3787 L234.5 259.5 L235.3787 261.6213 L237.5 262.5 L239.6213 261.6213 Z" style="fill:none; fill-rule:evenodd;"/>
    </g>
    <g style="fill:rgb(123,50,148); text-rendering:optimizeSpeed; color-rendering:optimizeSpeed; image-rendering:optimizeSpeed; shape-rendering:crispEdges; color-interpolation:sRGB; stroke:rgb(123,50,148);">
      <path style="stroke:none;" d="M280.5 238.5 L279.6213 236.3787 L277.5 235.5 L275.3787 236.3787 L274.5 238.5 L275.3787 240.6213 L277.5 241.5 L279.6213 240.6213 L280.5 238.5 Z"/>
    </g>
    <g style="stroke-linecap:butt; fill:rgb(123,50,148); text-rendering:geometricPrecision; color-rendering:optimizeQuality; image-rendering:optimizeQuality; stroke-linejoin:round; color-interpolation:linearRGB; stroke:rgb(123,50,148);">
      <path d="M280.5 238.5 L279.6213 236.3787 L277.5 235.5 L275.3787 236.3787 L274.5 238.5 L275.3787 240.6213 L277.5 241.5 L279.6213 240.6213 Z" style="fill:none; fill-rule:evenodd;"/>
    </g>
    <g style="text-rendering: geometricPrecision; stroke-width: 0.5; color-interpolation: linearRGB; color-rendering: optimizeQuality; stroke-linejoin: round;" transform="matrix(1, 0, 0, 1.004454, 0.369978, -1.367893)">
      <path d="M 521 384 L 521 33" style="fill: none; stroke-width: 0.999243px;"/>
      <path d="M 521 384 L 516.54 384" style="fill: none; stroke-width: 0.999243px;"/>
      <path d="M 521 296.25 L 516.54 296.25" style="fill: none; stroke-width: 0.999243px;"/>
      <path d="M 521 208.5 L 516.54 208.5" style="fill: none; stroke-width: 0.999243px;"/>
      <path d="M 521 120.75 L 516.54 120.75" style="fill: none; stroke-width: 0.999243px;"/>
      <path d="M 521 33 L 516.54 33" style="fill: none; stroke-width: 0.999243px;"/>
    </g>
    <g style="text-rendering:geometricPrecision; stroke-width:0.5; color-interpolation:linearRGB; color-rendering:optimizeQuality; stroke-linejoin:round; image-rendering:optimizeQuality;" transform="matrix(1, 0, 0, 1, 0.369978, -1.220896)">
      <path d="M 75 33 L 521 33" style="fill: none; stroke-width: 1px;"/>
      <path d="M 182.04 33 L 182.04 37.46" style="fill: none; stroke-width: 1px;"/>
      <path d="M 277.187 33 L 277.187 37.46" style="fill: none; stroke-width: 1px;"/>
      <path d="M 334.671 33 L 334.671 37.46" style="fill: none; stroke-width: 1px;"/>
      <path d="M 374.316 33 L 374.316 37.46" style="fill: none; stroke-width: 1px;"/>
      <path d="M 405.04 33 L 405.04 37.46" style="fill: none; stroke-width: 1px;"/>
      <path d="M 428.827 33 L 428.827 37.46" style="fill: none; stroke-width: 1px;"/>
      <path d="M 451.622 33 L 451.622 37.46" style="fill: none; stroke-width: 1px;"/>
      <path d="M 467.48 33 L 467.48 37.46" style="fill: none; stroke-width: 1px;"/>
      <path d="M 486.311 33 L 486.311 37.46" style="fill: none; stroke-width: 1px;"/>
    </g>
    <g transform="matrix(1, 0, 0, 1, 58.089218, -147.298767)"/>
    <g style="fill:rgb(123,50,148); text-rendering:optimizeSpeed; color-rendering:optimizeSpeed; image-rendering:optimizeSpeed; shape-rendering:crispEdges; color-interpolation:sRGB; stroke:rgb(123,50,148);">
      <path style="stroke:none;" d="M419.5 156.5 L418.6213 154.3787 L416.5 153.5 L414.3787 154.3787 L413.5 156.5 L414.3787 158.6213 L416.5 159.5 L418.6213 158.6213 L419.5 156.5 Z"/>
    </g>
    <g style="stroke-linecap:butt; fill:rgb(123,50,148); text-rendering:geometricPrecision; color-rendering:optimizeQuality; image-rendering:optimizeQuality; stroke-linejoin:round; color-interpolation:linearRGB; stroke:rgb(123,50,148);">
      <path d="M419.5 156.5 L418.6213 154.3787 L416.5 153.5 L414.3787 154.3787 L413.5 156.5 L414.3787 158.6213 L416.5 159.5 L418.6213 158.6213 Z" style="fill:none; fill-rule:evenodd;"/>
      <path d="M266.5 245.5 L265.6213 243.3787 L263.5 242.5 L261.3787 243.3787 L260.5 245.5 L261.3787 247.6213 L263.5 248.5 L265.6213 247.6213 Z" style="fill:none; fill-rule:evenodd;"/>
      <path d="M288.5 233.5 L287.6213 231.3787 L285.5 230.5 L283.3787 231.3787 L282.5 233.5 L283.3787 235.6213 L285.5 236.5 L287.6213 235.6213 Z" style="fill:none; fill-rule:evenodd;"/>
      <path d="M321.5 215.5 L320.6213 213.3787 L318.5 212.5 L316.3787 213.3787 L315.5 215.5 L316.3787 217.6213 L318.5 218.5 L320.6213 217.6213 Z" style="fill:none; fill-rule:evenodd;"/>
      <path d="M325.5 212.5 L324.6213 210.3787 L322.5 209.5 L320.3787 210.3787 L319.5 212.5 L320.3787 214.6213 L322.5 215.5 L324.6213 214.6213 Z" style="fill:none; fill-rule:evenodd;"/>
    </g>
    <g transform="matrix(1, 0, 0, 1, 182.039993, 28.6)" style="text-rendering:geometricPrecision; font-family:'Helvetica'; color-interpolation:linearRGB; color-rendering:optimizeQuality; image-rendering:optimizeQuality;">
      <text style="font-size: 11px; stroke: none; white-space: pre;" x="-3.5" y="-3">2</text>
    </g>
    <g transform="matrix(1, 0, 0, 1, 277.186707, 28.6)" style="text-rendering:geometricPrecision; font-family:'Helvetica'; color-interpolation:linearRGB; color-rendering:optimizeQuality; image-rendering:optimizeQuality;">
      <text style="font-size: 11px; stroke: none; white-space: pre;" x="-3.5" y="-3">4</text>
    </g>
    <g transform="matrix(1, 0, 0, 1, 334.671112, 28.6)" style="text-rendering:geometricPrecision; font-family:'Helvetica'; color-interpolation:linearRGB; color-rendering:optimizeQuality; image-rendering:optimizeQuality;">
      <text style="font-size: 11px; stroke: none; white-space: pre;" x="-3.5" y="-3">6</text>
    </g>
    <g transform="matrix(1, 0, 0, 1, 374.315613, 28.6)" style="text-rendering:geometricPrecision; font-family:'Helvetica'; color-interpolation:linearRGB; color-rendering:optimizeQuality; image-rendering:optimizeQuality;">
      <text style="font-size: 11px; stroke: none; white-space: pre;" x="-3.5" y="-3">8</text>
    </g>
    <g transform="matrix(1, 0, 0, 1, 405.040009, 28.6)" style="text-rendering:geometricPrecision; font-family:'Helvetica'; color-interpolation:linearRGB; color-rendering:optimizeQuality; image-rendering:optimizeQuality;">
      <text style="font-size: 11px; stroke: none; white-space: pre;" x="-7" y="-3">10</text>
    </g>
    <g transform="matrix(1, 0, 0, 1, 428.826599, 28.6)" style="text-rendering:geometricPrecision; font-family:'Helvetica'; color-interpolation:linearRGB; color-rendering:optimizeQuality; image-rendering:optimizeQuality;">
      <text style="font-size: 11px; stroke: none; white-space: pre;" x="-7" y="-3">12</text>
    </g>
    <g transform="matrix(1, 0, 0, 1, 451.622314, 28.6)" style="text-rendering:geometricPrecision; font-family:'Helvetica'; color-interpolation:linearRGB; color-rendering:optimizeQuality; image-rendering:optimizeQuality;">
      <text style="font-size: 11px; stroke: none; white-space: pre;" x="-7" y="-3">14</text>
    </g>
    <g transform="matrix(1, 0, 0, 1, 467.480011, 28.6)" style="text-rendering:geometricPrecision; font-family:'Helvetica'; color-interpolation:linearRGB; color-rendering:optimizeQuality; image-rendering:optimizeQuality;">
      <text style="font-size: 11px; stroke: none; white-space: pre;" x="-7" y="-3">16</text>
    </g>
    <g transform="matrix(1, 0, 0, 1, 486.311096, 28.6)" style="text-rendering:geometricPrecision; font-family:'Helvetica'; color-interpolation:linearRGB; color-rendering:optimizeQuality; image-rendering:optimizeQuality;">
      <text style="font-size: 11px; stroke: none; white-space: pre;" x="-7" y="-3">18</text>
    </g>
    <g transform="matrix(1, 0, 0, 1, 298.000214, 13.6)" style="font-size:13px; text-rendering:geometricPrecision; color-rendering:optimizeQuality; image-rendering:optimizeQuality; font-family:'Helvetica'; color-interpolation:linearRGB;">
      <text x="-34" y="-3" style="stroke: none; white-space: pre;">Age (years)</text>
    </g>
    <g transform="matrix(1, 0, 0, 1, 525.400024, 384)" style="text-rendering:geometricPrecision; font-family:'Helvetica'; color-interpolation:linearRGB; color-rendering:optimizeQuality; image-rendering:optimizeQuality;">
      <text style="font-size: 11px; stroke: none; white-space: pre;" x="0" y="3.5">0.5</text>
    </g>
    <g transform="matrix(1, 0, 0, 1, 525.400024, 296.25)" style="text-rendering:geometricPrecision; font-family:'Helvetica'; color-interpolation:linearRGB; color-rendering:optimizeQuality; image-rendering:optimizeQuality;">
      <text style="font-size: 11px; stroke: none; white-space: pre;" x="0" y="3.5">1</text>
    </g>
    <g transform="matrix(1, 0, 0, 1, 525.400024, 208.5)" style="text-rendering:geometricPrecision; font-family:'Helvetica'; color-interpolation:linearRGB; color-rendering:optimizeQuality; image-rendering:optimizeQuality;">
      <text style="font-size: 11px; stroke: none; white-space: pre;" x="0" y="3.5">1.5</text>
    </g>
    <g transform="matrix(1, 0, 0, 1, 525.400024, 120.75)" style="text-rendering:geometricPrecision; font-family:'Helvetica'; color-interpolation:linearRGB; color-rendering:optimizeQuality; image-rendering:optimizeQuality;">
      <text style="font-size: 11px; stroke: none; white-space: pre;" x="0" y="3.5">2</text>
    </g>
    <g transform="matrix(1, 0, 0, 1, 525.400024, 33)" style="text-rendering:geometricPrecision; font-family:'Helvetica'; color-interpolation:linearRGB; color-rendering:optimizeQuality; image-rendering:optimizeQuality;">
      <text style="font-size: 11px; stroke: none; white-space: pre;" x="0" y="3.5">2.5</text>
    </g>
    <g transform="matrix(0, -1, 1, 0, 548.074524, 155.009445)" style="font-size:13px; text-rendering:geometricPrecision; color-rendering:optimizeQuality; image-rendering:optimizeQuality; font-family:'Helvetica'; color-interpolation:linearRGB;">
      <text style="fill: rgb(255, 41, 0); stroke: none; white-space: pre;"><tspan x="-103" y="11" style="fill: rgb(0, 114, 189);">Head Width (m)</tspan><tspan>   Baleen Length (m)</tspan></text>
    </g>
    <g style="stroke-linecap:butt; fill:rgb(0,114,189); text-rendering:geometricPrecision; color-rendering:optimizeQuality; image-rendering:optimizeQuality; stroke-linejoin:round; color-interpolation:linearRGB; stroke:rgb(0,114,189); stroke-width:0.5;">
      <path d="M85.935 193.3808 L181.5578 166.799 L237.4936 151.2496 L277.1807 140.2171 L307.9644 131.6597 L333.1164 124.6677 L354.3822 118.7561 L372.8036 113.6353 L389.0523 109.1183 L403.5872 105.0778 L416.7357 101.4227 L428.7393 98.0859 L439.7816 95.0163 L450.0051 92.1743 L459.5229 89.5284 L468.4263 87.0534 L476.7898 84.7285 L484.6751 82.5365 L492.1339 80.463 L499.2101 78.496" style="fill: none; fill-rule: evenodd; stroke-width: 1px;"/>
      <path style="fill:none; stroke-dasharray:1,3; stroke-miterlimit:1; fill-rule:evenodd; stroke-linejoin:bevel;" d="M85.935 207.8985 L181.5578 182.718 L237.4936 167.9883 L277.1807 157.5374 L307.9644 149.4311 L333.1164 142.8078 L354.3822 137.2078 L372.8036 132.3569 L389.0523 128.0781 L403.5872 124.2506 L416.7357 120.7882 L428.7393 117.6272 L439.7816 114.7195 L450.0051 112.0273 L459.5229 109.5209 L468.4263 107.1763 L476.7898 104.974 L484.6751 102.8975 L492.1339 100.9334 L499.2101 99.07"/>
      <path style="fill:none; stroke-dasharray:1,3; stroke-miterlimit:1; fill-rule:evenodd; stroke-linejoin:bevel;" d="M85.935 178.8631 L181.5578 150.8799 L237.4936 134.5108 L277.1807 122.8968 L307.9644 113.8882 L333.1164 106.5277 L354.3822 100.3044 L372.8036 94.9136 L389.0523 90.1586 L403.5872 85.9051 L416.7357 82.0573 L428.7393 78.5445 L439.7816 75.3131 L450.0051 72.3213 L459.5229 69.536 L468.4263 66.9305 L476.7898 64.483 L484.6751 62.1754 L492.1339 59.9927 L499.2101 57.9219"/>
    </g>
    <path style="fill: rgb(0, 0, 0); stroke: rgb(0, 0, 0); stroke-width: 0.439232px; stroke-linecap: butt; stroke-linejoin: miter; stroke-opacity: 1;" d="M 571.826 321.578 L 585.583 332.61 L 641.621 329.757 L 646.477 315.112 L 643.645 303.7 L 622.605 277.071 L 610.871 277.452 L 597.721 277.642 L 590.64 283.539 L 580.93 297.423 L 572.029 314.161 Z" id="path4298"/>
    <path style="fill: rgb(179, 179, 179); stroke: rgb(0, 0, 0); stroke-width: 0.439232px; stroke-linecap: butt; stroke-linejoin: miter; stroke-opacity: 1;" d="M 587.606 326.904 C 587.606 326.904 589.003 323.816 589.831 322.339 C 590.934 320.371 592.166 318.473 593.473 316.634 C 594.735 314.857 595.997 313.058 597.519 311.498 C 599.048 309.932 600.738 308.499 602.577 307.313 C 604.279 306.216 605.279 305.107 608.038 304.651 C 610.83 304.189 611.906 304.166 614.917 304.841 C 616.613 305.222 618.294 305.83 619.773 306.743 C 621.626 307.888 623.13 309.535 624.628 311.117 C 626.253 312.833 627.563 314.821 629.078 316.634 C 631.637 319.695 631.118 319.001 631.91 320.195 C 632.848 321.605 634.136 324.432 634.136 324.432 L 634.338 325.573 L 637.778 344.023 L 635.148 354.103 L 628.877 362.091 L 618.559 365.705 L 605.813 366.085 L 594.08 361.901 L 588.213 351.25 C 588.213 351.25 585.987 340.598 585.987 339.647 C 585.987 338.697 587.606 326.904 587.606 326.904 Z" id="path4296"/>
    <path style="fill: rgb(255, 255, 255); stroke: rgb(0, 0, 0); stroke-width: 0.439232px; stroke-linecap: butt; stroke-linejoin: miter; stroke-opacity: 1;" d="M 600.351 282.588 L 596.912 286.011 L 592.461 290.005 L 588.212 295.141 L 584.774 299.516 L 580.12 308.075 L 577.288 313.4 L 576.479 315.492 L 574.861 315.492 L 572.636 317.774 L 571.422 319.676 L 573.04 316.253 L 575.468 313.019 L 577.49 310.166 L 580.12 305.602 L 583.762 299.325 L 589.023 291.527 L 592.056 286.962 L 595.294 282.588 L 597.114 280.115 L 597.316 279.735 L 598.934 279.164 L 600.351 279.735 L 601.97 281.637 Z" id="path4282"/>
    <path style="fill: rgb(255, 255, 255); stroke: rgb(0, 0, 0); stroke-width: 0.439232px; stroke-linecap: butt; stroke-linejoin: miter; stroke-opacity: 1;" d="M 614.512 282.968 L 618.341 285.494 L 621.905 288.892 C 621.886 288.867 622.007 288.831 624.159 291.792 L 626.76 295.826 C 626.76 295.826 626.573 295.257 628.674 299.325 C 631.133 304.09 631.91 306.362 631.91 306.362 L 635.148 313.781 L 636.969 318.155 L 639.599 315.683 L 642.026 314.161 L 644.656 313.019 L 640.812 306.173 L 638.182 301.988 C 638.182 301.988 637.704 301.403 635.864 298.645 C 635.128 297.542 635.593 297.938 633.731 295.331 C 633.006 294.315 632.95 294.659 631.304 292.478 C 630.312 291.163 629.369 289.813 628.395 288.484 C 627.491 287.25 625.672 284.789 625.672 284.789 L 623.041 281.721 L 620.177 279.735 L 618.559 278.784 L 615.12 279.354 L 614.31 280.876 L 614.512 282.968 Z" id="path4284"/>
    <path style="fill: rgb(26, 26, 26); stroke: rgb(0, 0, 0); stroke-width: 0.439232px; stroke-linecap: butt; stroke-linejoin: miter; stroke-opacity: 1;" d="M 643.267 312.232 C 644.886 311.732 644.711 311.672 645.65 312.014 C 646.883 312.464 647.47 314.106 647.47 314.106 L 649.618 318.481 C 649.618 318.481 650.86 322.109 651.112 323.996 C 651.295 325.379 651.146 325.804 651.112 328.18 C 651.072 330.976 650.707 333.292 650.707 333.126 L 649.493 340.163 L 648.279 344.918 L 647.268 349.483 L 646.054 353.667 L 644.638 357.852 C 644.638 357.852 644.018 360.067 643.502 361.086 C 642.915 362.241 642.356 363.156 639.827 364.402 C 638.618 364.999 635.955 365.572 635.955 365.572 L 632.25 366.171 L 628.453 366.411 L 623.194 366.411 L 617.529 366.601 L 613.482 366.981 C 613.482 366.981 610.527 367.567 609.032 367.743 C 607.086 367.971 605.124 368.088 603.165 368.122 C 601.074 368.159 596.894 367.932 596.894 367.932 L 588.599 367.552 C 588.599 367.552 584.134 367.3 581.924 366.981 C 579.774 366.672 580.829 366.747 578.484 366.087 C 576.366 365.49 577.203 365.355 575.854 364.509 C 575.113 364.044 574.472 363.415 573.908 362.744 C 573.148 361.841 572.544 360.807 572.01 359.754 C 571.425 358.6 570.594 356.14 570.594 356.14 C 570.594 356.14 569.844 351.572 569.519 349.24 C 569.172 346.752 568.936 344.17 568.571 341.685 C 568.283 339.723 567.989 337.759 567.762 335.789 C 567.514 333.638 567.155 329.322 567.155 329.322 L 567.357 324.187 C 567.357 324.187 567.957 322.282 568.571 321.524 C 570.412 319.25 570.89 318.559 570.89 318.559 L 573.628 315.818 C 573.628 315.818 574.32 314.773 575.777 314.705 C 577.234 314.637 578.734 315.438 578.734 315.438 C 578.734 315.438 581.519 316.931 582.53 318.101 C 584.224 320.061 585.751 323.045 585.751 323.045 L 587.588 328.942 L 588.802 334.077 L 590.421 339.593 L 592.038 344.728 L 593.657 349.674 C 593.657 349.674 595.525 353.811 597.096 355.38 C 598.488 356.77 600.321 357.707 602.154 358.422 C 604.206 359.223 606.436 359.53 608.628 359.754 C 610.573 359.952 613.685 359.944 614.494 359.754 C 615.303 359.564 616.24 359.74 619.35 358.422 C 622.057 357.276 624.61 355.569 624.61 355.569 C 624.61 355.569 626.979 352.817 627.77 351.224 C 628.624 349.503 629.324 347.664 629.792 345.789 C 630.97 341.076 630.782 341.53 631.286 339.403 C 631.886 336.865 632.268 336.99 633.106 331.795 C 633.541 329.096 633.714 323.617 633.714 323.617 L 635.129 319.241 L 636.748 317.53 C 636.748 317.53 637.631 316.707 639.982 314.628 C 641.186 313.564 641.972 312.632 643.267 312.232 Z" id="path4286" bx:origin="0.889 1.029"/>
    <path style="stroke: rgb(0, 0, 0); stroke-width: 0.439232px; stroke-linecap: butt; stroke-linejoin: miter; stroke-opacity: 1; fill: rgb(26, 26, 26);" d="M 599.947 272.317 C 596.532 275.498 595.609 277.185 589.834 282.342 C 584.787 289.663 580.753 295.631 576.899 302.848 C 574.743 306.787 573.143 308.839 570.392 314.65 C 569.146 318.555 569.865 317.874 569.601 319.486 C 571.795 318.531 572.218 316.194 573.602 313.629 C 573.571 312.833 573.238 312.632 578.83 303.341 C 580.905 299.896 582.811 296.344 585.074 293.009 C 589.38 287.697 593.7 282.393 598.332 277.327 C 599.332 275.889 599.356 273.943 599.947 272.317 Z" id="path3831"/>
    <path style="stroke: rgb(0, 0, 0); stroke-width: 0.439232px; stroke-linecap: butt; stroke-linejoin: miter; stroke-opacity: 1; fill: rgb(26, 26, 26);" d="M 613.502 268.704 C 617.983 272.487 625.257 276.719 628.87 281.323 C 634.979 288.344 638.769 292.213 645.564 303.566 C 648.848 312.009 648.251 312.685 647.893 313.781 C 645.087 312.857 644.678 309.767 643.572 307.553 C 641.222 303.246 643.039 305.605 635.915 294.953 C 633.759 291.254 631.114 288.53 628.707 284.993 C 627.265 283.209 626.603 282.555 623.7 279.456 C 621.605 277.923 618.792 277.058 617.546 274.68 C 616.56 273.238 610.702 270.256 613.502 268.704 Z" id="path3837"/>
    <path style="stroke: rgb(0, 0, 0); stroke-width: 0.439232px; stroke-linecap: butt; stroke-linejoin: miter; stroke-opacity: 1; fill: rgb(26, 26, 26);" d="M 600.937 282.081 C 600.937 282.081 603.602 282.649 604.943 282.888 C 607.775 283.394 607.973 283.619 609.521 283.695 C 611.989 283.815 611.84 283.477 612.953 283.157 C 614.814 282.624 613.888 282.557 616.101 281.812 C 618.238 281.093 617.559 281.528 618.797 280.475 C 620.084 279.379 620.106 278.315 620.106 278.315 L 619.82 275.895 C 619.82 275.895 618.914 274.069 617.818 272.398 C 617.418 271.79 616.924 271.911 616.101 271.053 C 615.277 270.193 614.098 268.094 614.098 268.094 C 614.098 268.094 613.098 266.995 611.237 266.211 C 609.915 265.655 610.022 265.418 608.376 265.404 C 606.902 265.391 606.121 264.792 604.085 266.48 C 602.486 267.806 602.372 267.758 601.795 268.632 C 600.711 270.279 600.365 271.591 600.365 271.591 L 598.934 274.012 L 597.791 275.895 C 597.791 275.895 597.016 278.048 597.218 279.122 C 597.353 279.845 597.811 280.52 598.363 281.005 C 599.177 281.721 600.937 282.081 600.937 282.081 Z" id="path4280"/>
    <text x="800.021" y="366.025" style="white-space: pre; fill: rgb(51, 51, 51); font-family: sans-serif; font-size: 24px;"> </text>
  </g>
  <text x="-223.962" y="34.023" style="stroke: none; white-space: pre; font-size: 13px; font-style: normal; font-weight: normal; fill: rgb(0, 0, 0); fill-opacity: 1; stroke-width: 1; stroke-linecap: square; stroke-linejoin: miter; stroke-miterlimit: 10; stroke-opacity: 1; stroke-dasharray: none; stroke-dashoffset: 0; font-family: Helvetica;" id="text5803"><tspan style="font-size: 10px; word-spacing: 0px;" id="tspan5805">Body Length (m)</tspan></text>
  <text transform="matrix(0, -1, 1, 0, -543.069092, -236.499741)" id="text5793" style="font-size: 10px; stroke: none; font-family: Helvetica; white-space: pre;" y="189.888" x="-357.287"><tspan id="tspan5795" style="font-size: 10px; fill: rgb(0, 107, 177); fill-opacity: 1; word-spacing: 0px;">Head Width (m)   </tspan><tspan id="tspan5797" style="font-size: 10px; fill: rgb(0, 107, 177); fill-opacity: 1; word-spacing: 0px;"/><tspan id="tspan5799" style="font-size: 10px; fill: rgb(0, 107, 177); fill-opacity: 1; word-spacing: 0px;"/></text>
  <text id="text5787" transform="matrix(0, -1, 1, 0, -528.624939, -233.033142)" style="font-size: 10px; stroke: none; font-family: Helvetica; white-space: pre;" y="138.632" x="-358.428"><tspan id="tspan5789" style="font-size: 10px; fill: rgb(0, 107, 177); fill-opacity: 1; word-spacing: 0px;"/><tspan id="tspan5791" style="font-size: 10px; fill: rgb(255, 41, 0); fill-opacity: 1; stroke: none; word-spacing: 0px;">Baleen Length (m)   </tspan></text>
  <path style="fill: none; stroke: rgb(0, 0, 0); stroke-width: 1.23585px; stroke-linecap: butt; stroke-linejoin: miter; stroke-opacity: 1;" d="M -345.143 42.403 L -140.756 42.403" id="path4590"/>
  <path style="fill: rgb(255, 221, 85); stroke: rgb(255, 41, 0); stroke-linecap: butt; stroke-linejoin: miter; stroke-opacity: 1; stroke-width: 2px;" d="M -380.988 46.872 L -380.988 126.728" id="path4617"/>
  <path style="fill: rgb(0, 102, 255); stroke: rgb(12, 99, 248); stroke-width: 2.49994; stroke-miterlimit: 10; stroke-opacity: 1; stroke-dasharray: none;" d="M -325.693 75.979 L -325.693 106.605" id="path3761"/>
  <path style="fill:none;stroke:#000000;stroke-width:1px;stroke-linecap:butt;stroke-linejoin:miter;stroke-opacity:1" d="M -377.327 47.33 C -374.352 47.482 -371.377 47.635 -368.403 47.787 C -368.438 57.955 -369.721 68.094 -371.291 78.124 C -372.558 82.982 -372.875 87.945 -373.222 92.932 C -373.662 98.701 -374.983 104.345 -376.158 109.984 C -376.317 114.387 -375.728 118.847 -377.039 123.142 C -377.214 127.335 -377.129 119.395 -377.264 118.104 C -377.696 107.942 -377.317 97.776 -377.182 87.617 C -377.503 79.986 -377.007 72.373 -376.549 64.763 C -376.36 58.936 -377.006 53.138 -377.327 47.33 Z" id="path4609"/>
  <path style="fill:none;stroke:#000000;stroke-width:1px;stroke-linecap:butt;stroke-linejoin:miter;stroke-opacity:1" d="M -368.632 49.16 L -369.318 57.397 L -369.318 67.694 L -372.064 87.143 L -372.979 95.152 L -373.666 101.558 L -375.267 108.652 L -375.267 112.77 L -375.725 118.491 L -377.327 126.27" id="path4611"/>
  <path style="fill:none;stroke:#000000;stroke-width:1.26153219px;stroke-linecap:butt;stroke-linejoin:miter;stroke-opacity:1" d="M -297.428 69.341 C -299.34 76.189 -304.416 82.383 -311.722 83.636 C -320.217 85.653 -328.755 83.004 -337.106 81.709 C -343.247 81.099 -344.449 88.55 -343.382 93.091 C -342.909 98.827 -336.087 100.156 -331.938 97.314 C -323.136 95.504 -313.175 94.909 -305.465 100.378 C -300.084 102.972 -296.653 107.69 -295.09 113.355" id="path4531"/>
  <g transform="matrix(0.736602, 0, 0, 0.736602, -31.773514, 31.630146)">
    <path style="fill:none;stroke:#000000;stroke-width:1.22852242px;stroke-linecap:butt;stroke-linejoin:miter;stroke-opacity:1" d="M -355.153 50.227 C -374.334 55.391 -394.022 58.367 -413.499 61.965 C -425.902 65.789 -431.497 84.695 -419.883 92.564 C -407.007 102.002 -390.437 103.046 -375.608 107.679 C -361.242 111.581 -346.529 113.924 -331.659 114.44 C -317.191 116.663 -302.408 119.544 -287.882 115.898 C -261.1 111.473 -235.607 101.846 -210.422 92.067 C -197.18 87.137 -179.464 87.796 -170.826 100.54 C -163.661 110.427 -158.298 122.745 -147.047 128.641 C -135.917 130.302 -147.499 115.166 -146.285 109.191 C -147.686 100.547 -150.177 88.062 -155.825 80.98 C -154.665 67.634 -149.213 54.869 -149.752 41.466 C -146.948 36.307 -144.689 25.921 -153.102 34.711 C -165.685 42.888 -170.825 57.416 -178.115 69.586 C -188.055 79.189 -203.026 75.002 -213.943 69.511 C -238.128 58.909 -262.396 46.8 -288.874 43.38 C -311.298 41.07 -333.424 44.916 -355.153 50.227 Z" id="path4533"/>
    <path style="fill:none;stroke:#000000;stroke-width:1.22852242px;stroke-linecap:butt;stroke-linejoin:miter;stroke-opacity:1" d="M -354.715 50.227 C -347.927 44.207 -342.446 36.687 -334.727 31.748 C -332.2 30.442 -329.486 28.546 -326.494 29.368 C -322.233 29.774 -318.006 30.571 -313.86 31.618 C -311.933 32.321 -312.188 35.05 -314.157 35.411 C -317.013 37.78 -320.732 41.322 -322.951 44.324" id="path4537"/>
    <path style="fill:none;stroke:#000000;stroke-width:1.22852242px;stroke-linecap:butt;stroke-linejoin:miter;stroke-opacity:1" d="M -352.185 112.913 C -347.01 118.684 -341.99 125.057 -334.785 128.39 C -330.991 130.54 -326.97 132.415 -322.663 133.246 C -319.841 132.844 -317.503 131.043 -314.801 130.264 C -313.503 129.445 -311.665 129.614 -310.649 128.35 C -310.16 126.879 -311.602 125.654 -312.241 124.447 C -314.387 121.386 -317.136 118.822 -319.858 116.286" id="path4541"/>
  </g>
  <text id="text-1" style="font-size: 10px; stroke: none; font-family: Helvetica; white-space: pre;" y="29.548" x="-8.771"><tspan id="tspan-1" style="font-size: 10px; fill: rgb(0, 107, 177); fill-opacity: 1; word-spacing: 0px;"/><tspan id="tspan-2" style="font-size: 10px; fill: rgb(255, 41, 0); fill-opacity: 1; stroke: none; word-spacing: 0px;">Baleen Length (m)   </tspan></text>
  <text id="text-2" style="font-size: 10px; stroke: none; font-family: Helvetica; white-space: pre;" y="150.27" x="-73.043"><tspan id="tspan-3" style="font-size: 10px; fill: rgb(0, 107, 177); fill-opacity: 1; word-spacing: 0px;">Head Width (m)   </tspan><tspan id="tspan-4" style="font-size: 10px; fill: rgb(0, 107, 177); fill-opacity: 1; word-spacing: 0px;"/><tspan id="tspan-5" style="font-size: 10px; fill: rgb(0, 107, 177); fill-opacity: 1; word-spacing: 0px;"/></text>
  <path style="fill: rgb(0, 102, 255); stroke: rgb(12, 99, 248); stroke-miterlimit: 10; stroke-opacity: 1; stroke-dasharray: none; stroke-width: 2px;" d="M -38.883 100.487 L -38.883 165.881" id="path-2" transform="matrix(0, 1, -1, 0, 94.300999, 172.066998)"/>
  <text transform="matrix(1, 0, 0, 1, 0.8915, 281.715912)" style="fill: rgb(51, 51, 51); font-family: sans-serif; font-size: 10px; stroke: none; text-anchor: middle; white-space: pre;"><tspan x="67.072" y="-185.201" style="fill: rgb(123, 50, 148);">Gape =</tspan><tspan> </tspan><tspan x="67.0719985961914" dy="1.5em">​</tspan><tspan style="fill: rgb(12, 99, 248);">Width</tspan><tspan> x </tspan><tspan style="fill: rgb(255, 41, 0);">Length</tspan><tspan><tspan x="67.0719985961914" dy="1.5em">​</tspan>2  </tspan></text>
  <path style="fill: rgb(255, 221, 85); stroke: rgb(255, 41, 0); stroke-linecap: butt; stroke-linejoin: miter; stroke-opacity: 1; stroke-width: 2px;" d="M -24.061 19.229 L 16.057 69.665" id="path-1"/>
  <path style="fill: rgb(216, 216, 216); stroke: rgb(0, 0, 0);" d="M 29.427 115.795 L 106.285 115.832"/>
</svg>